<?xml version="1.0" encoding="utf-8"?>
<!-- Generator: Adobe Illustrator 21.1.0, SVG Export Plug-In . SVG Version: 6.00 Build 0)  -->
<svg version="1.1" id="Layer_1" xmlns="http://www.w3.org/2000/svg" xmlns:xlink="http://www.w3.org/1999/xlink" x="0px" y="0px"
	 viewBox="0 0 406 306" style="enable-background:new 0 0 406 306;" xml:space="preserve">
<style type="text/css">
	.st0{opacity:0.18;fill:#FFFFFF;enable-background:new    ;}
	.st1{fill:#4900AE;}
	.st2{fill:url(#SVGID_1_);}
	.st3{fill:url(#SVGID_2_);}
	.st4{fill:url(#SVGID_3_);}
	.st5{fill:url(#SVGID_4_);}
	.st6{fill:#FFFFFF;}
	.st7{fill:url(#SVGID_5_);}
	.st8{fill:url(#SVGID_6_);}
	.st9{fill:url(#SVGID_7_);}
	.st10{fill:url(#SVGID_8_);}
	.st11{fill:url(#SVGID_9_);}
	.st12{fill:url(#SVGID_10_);}
	.st13{fill:#FF2235;}
	.st14{fill:url(#SVGID_11_);}
	.st15{fill:url(#SVGID_12_);}
	.st16{fill:url(#SVGID_13_);}
	.st17{fill:#3F3D56;}
	.st18{fill:url(#SVGID_14_);}
	.st19{fill:url(#SVGID_15_);}
	.st20{fill:url(#SVGID_16_);}
	.st21{fill:#607C1C;}
	.st22{fill:url(#SVGID_17_);}
	.st23{fill:url(#SVGID_18_);}
	.st24{fill:url(#SVGID_19_);}
	.st25{fill:url(#SVGID_20_);}
	.st26{fill:url(#SVGID_21_);}
	.st27{fill:url(#SVGID_22_);}
	.st28{opacity:0.18;fill:#1D2741;enable-background:new    ;}
</style>
<title>calendar</title>
<path class="st0" d="M97.1,65.4c-22.1,11.8-44.9,24.2-60.3,44c-9.3,11.9-15.4,26.1-18.7,40.8c-5.6,25.2-1.4,54.3,17.7,71.6
	c6.7,6,14.8,10.3,23.2,13.6c17.4,6.8,36.2,9.6,54.8,8.1c15.3-1.2,30.6-5.2,45.8-3.3c18.6,2.3,34.8,13.2,52.1,20.4
	c21.5,8.9,44.9,12.1,68,9.3c5.8-0.7,11.7-1.8,16.8-4.7c6.1-3.4,10.6-8.9,15.4-14c10.8-11.5,23.6-21,37.7-28
	c7.4-3.7,15.2-6.8,21.7-12c16.9-13.7,19.8-38.2,18.8-59.9s-5.9-45.7-23.3-58.9c-3.9-2.9-8.2-5.2-12-8.3
	c-12.5-10.3-16.3-27.7-24.3-41.8c-18-31.6-58.2-45.5-94.4-41.6C184.2,6.3,141.7,41.6,97.1,65.4z"/>
<path class="st1" d="M368.9,151.5c-0.5,4.4-5.8,11.7-13.3,19.9c-12.2,13.4-29.9,29.3-40.5,38.6l0,0c-5.5,4.8-9.1,7.8-9.1,7.8v-82.8
	c0,0,12.9-16.5,22.3-17.6c9.4-1.1,28.3,9.9,28.3,9.9S370.4,136.3,368.9,151.5z"/>
<linearGradient id="SVGID_1_" gradientUnits="userSpaceOnUse" x1="1356.4941" y1="-512.5657" x2="1185.5142" y2="-834.2956" gradientTransform="matrix(0.5125 0 0 -0.5125 -352.7569 -117.4306)">
	<stop  offset="0" style="stop-color:#000000;stop-opacity:0"/>
	<stop  offset="0.91" style="stop-color:#000000;stop-opacity:0.8"/>
	<stop  offset="1" style="stop-color:#000000"/>
</linearGradient>
<path class="st2" d="M355.6,171.3c-12.2,13.4-29.9,29.3-40.5,38.6c-0.8-1.3-1-3-1-4.5c-0.3-7.8-0.2-15.6-0.1-23.4
	c0.1-7.6,0.1-15.1,0.6-22.7c0.5-7,1.3-14.2,4.5-20.5c0.7,0.6,1.3,1.4,1.8,2.3c4.1,7,6.6,14.6,9.2,22.3c1.3,3.8,2.5,7.5,3.8,11.3
	c2.8-1.6,5.4-3.6,7.5-6.1c1.9-2.2,3.7-4.5,5.5-6.8c1.3-1.6,3.7-6.2,5.6-4.4C355.5,160.2,355.8,166.5,355.6,171.3z"/>
<rect x="105.5" y="25.9" class="st1" width="209.9" height="243.1"/>
<linearGradient id="SVGID_2_" gradientUnits="userSpaceOnUse" x1="1124.8151" y1="-159.7063" x2="1105.7751" y2="-421.1463" gradientTransform="matrix(0.5125 0 0 -0.5125 -352.7569 -117.4306)">
	<stop  offset="0" style="stop-color:#000000;stop-opacity:0"/>
	<stop  offset="0.91" style="stop-color:#000000;stop-opacity:0.8"/>
	<stop  offset="1" style="stop-color:#000000"/>
</linearGradient>
<rect x="105.5" y="25.9" class="st3" width="209.9" height="243.1"/>
<linearGradient id="SVGID_3_" gradientUnits="userSpaceOnUse" x1="1076.595" y1="868.0763" x2="1081.105" y2="937.8963" gradientTransform="matrix(0.5125 0 0 0.5125 -352.7569 -434.1785)">
	<stop  offset="1.000000e-02" style="stop-color:#000000"/>
	<stop  offset="0.1" style="stop-color:#000000;stop-opacity:0.77"/>
	<stop  offset="0.99" style="stop-color:#000000;stop-opacity:0"/>
</linearGradient>
<path class="st4" d="M286.5,37.6L105.5,53.9c0.8,0,0-22.6,0-28h190.9v1.9C296.4,33.2,292,37.6,286.5,37.6z"/>
<rect x="105.5" y="53.9" class="st1" width="209.9" height="243.1"/>
<linearGradient id="SVGID_4_" gradientUnits="userSpaceOnUse" x1="1026.0853" y1="-571.0784" x2="455.0053" y2="-572.7584" gradientTransform="matrix(0.5125 0 0 -0.5125 -352.7569 -117.4306)">
	<stop  offset="0" style="stop-color:#000000;stop-opacity:0"/>
	<stop  offset="0.91" style="stop-color:#000000;stop-opacity:0.8"/>
	<stop  offset="1" style="stop-color:#000000"/>
</linearGradient>
<rect x="105.5" y="53.9" class="st5" width="29.8" height="243.1"/>
<rect x="117.2" y="99.3" class="st6" width="36.3" height="36.3"/>
<rect x="155.5" y="99.3" class="st6" width="36.3" height="36.3"/>
<rect x="193.7" y="99.3" class="st6" width="36.3" height="36.3"/>
<rect x="232" y="99.3" class="st6" width="36.3" height="36.3"/>
<rect x="117.2" y="137.2" class="st6" width="36.3" height="36.3"/>
<rect x="155.5" y="137.2" class="st6" width="36.3" height="36.3"/>
<rect x="193.7" y="137.2" class="st6" width="36.3" height="36.3"/>
<rect x="232" y="137.2" class="st6" width="36.3" height="36.3"/>
<rect x="117.2" y="175" class="st6" width="36.3" height="36.3"/>
<rect x="155.5" y="175" class="st6" width="36.3" height="36.3"/>
<rect x="193.7" y="175" class="st6" width="36.3" height="36.3"/>
<rect x="232" y="175" class="st6" width="36.3" height="36.3"/>
<rect x="117.2" y="212.9" class="st6" width="36.3" height="36.3"/>
<rect x="155.5" y="212.9" class="st6" width="36.3" height="36.3"/>
<rect x="193.7" y="212.9" class="st6" width="36.3" height="36.3"/>
<rect x="232" y="212.9" class="st6" width="36.3" height="36.3"/>
<rect x="117.2" y="250.7" class="st6" width="36.3" height="36.3"/>
<rect x="155.5" y="250.7" class="st6" width="36.3" height="36.3"/>
<rect x="193.7" y="250.7" class="st6" width="36.3" height="36.3"/>
<rect x="269.6" y="99.3" class="st6" width="36.3" height="36.3"/>
<rect x="269.6" y="61.4" class="st6" width="36.3" height="36.3"/>
<rect x="232" y="61.4" class="st6" width="36.3" height="36.3"/>
<rect x="269.6" y="137.2" class="st6" width="36.3" height="36.3"/>
<rect x="269.6" y="175" class="st6" width="36.3" height="36.3"/>
<rect x="269.6" y="212.9" class="st6" width="36.3" height="36.3"/>
<path class="st1" d="M121.7,16v19.7c0,1.1,1.3,1.9,3,1.9l0,0c1.7,0,3-0.9,3-1.9V16c0-1.1-1.3-1.9-3-1.9l0,0
	C123.1,14.1,121.7,15,121.7,16z"/>
<path class="st1" d="M150.4,16v19.7c0,1.1,1.3,1.9,3,1.9l0,0c1.7,0,3-0.9,3-1.9V16c0-1.1-1.3-1.9-3-1.9l0,0
	C151.8,14.1,150.4,15,150.4,16z"/>
<path class="st1" d="M179.1,16v19.7c0,1.1,1.3,1.9,3,1.9l0,0c1.7,0,3-0.9,3-1.9V16c0-1.1-1.3-1.9-3-1.9l0,0
	C180.5,14.1,179.1,15,179.1,16z"/>
<path class="st1" d="M207.9,16v19.7c0,1.1,1.3,1.9,3,1.9l0,0c1.7,0,3-0.9,3-1.9V16c0-1.1-1.3-1.9-3-1.9l0,0
	C209.2,14.1,207.9,15,207.9,16z"/>
<path class="st1" d="M236.6,16v19.7c0,1.1,1.3,1.9,3,1.9l0,0c1.7,0,3-0.9,3-1.9V16c0-1.1-1.3-1.9-3-1.9l0,0
	C237.9,14.1,236.6,15,236.6,16z"/>
<path class="st1" d="M265.3,16v19.7c0,1.1,1.3,1.9,3,1.9l0,0c1.7,0,3-0.9,3-1.9V16c0-1.1-1.3-1.9-3-1.9l0,0
	C266.6,14.1,265.3,15,265.3,16z"/>
<path class="st1" d="M293.4,16v19.7c0,1.1,1.3,1.9,3,1.9l0,0c1.7,0,3-0.9,3-1.9V16c0-1.1-1.3-1.9-3-1.9l0,0
	C294.7,14.1,293.4,15,293.4,16z"/>
<rect x="315.4" y="25.9" class="st1" width="4.8" height="271.1"/>
<linearGradient id="SVGID_5_" gradientUnits="userSpaceOnUse" x1="1429.5452" y1="-355.2153" x2="973.4151" y2="-426.1753" gradientTransform="matrix(0.5125 0 0 -0.5125 -352.7569 -30.2993)">
	<stop  offset="0" style="stop-color:#000000;stop-opacity:0"/>
	<stop  offset="0.91" style="stop-color:#000000;stop-opacity:0.8"/>
	<stop  offset="1" style="stop-color:#000000"/>
</linearGradient>
<rect x="315.4" y="25.9" class="st7" width="4.8" height="271.1"/>
<linearGradient id="SVGID_6_" gradientUnits="userSpaceOnUse" x1="1151.3234" y1="-354.6464" x2="1153.2034" y2="-383.1764" gradientTransform="matrix(0.5125 0 0 -0.5125 -352.7569 -117.4306)">
	<stop  offset="0" style="stop-color:#183866"/>
	<stop  offset="1" style="stop-color:#1A7FC1"/>
</linearGradient>
<path class="st8" d="M240.4,66.8c0,1.6-1.3,2.9-2.9,2.9c-1.6,0-2.9-1.3-2.9-2.9c0-1.6,1.3-2.9,2.9-2.9l0,0
	C239.1,63.9,240.4,65.2,240.4,66.8z"/>
<linearGradient id="SVGID_7_" gradientUnits="userSpaceOnUse" x1="1151.3234" y1="-428.5164" x2="1153.2034" y2="-457.0564" gradientTransform="matrix(0.5125 0 0 -0.5125 -352.7569 -117.4306)">
	<stop  offset="0" style="stop-color:#183866"/>
	<stop  offset="1" style="stop-color:#1A7FC1"/>
</linearGradient>
<path class="st9" d="M240.4,104.6c0,1.6-1.3,2.9-2.9,2.9c-1.6,0-2.9-1.3-2.9-2.9c0-1.6,1.3-2.9,2.9-2.9l0,0
	C239.1,101.7,240.4,103,240.4,104.6z"/>
<linearGradient id="SVGID_8_" gradientUnits="userSpaceOnUse" x1="1165.0751" y1="-428.5163" x2="1166.9451" y2="-457.0563" gradientTransform="matrix(0.5125 0 0 -0.5125 -352.7569 -117.4306)">
	<stop  offset="0" style="stop-color:#183866"/>
	<stop  offset="1" style="stop-color:#1A7FC1"/>
</linearGradient>
<path class="st10" d="M247.4,104.6c0,1.6-1.3,2.9-2.9,2.9c-1.6,0-2.9-1.3-2.9-2.9c0-1.6,1.3-2.9,2.9-2.9l0,0
	C246.1,101.7,247.4,103,247.4,104.6z"/>
<linearGradient id="SVGID_9_" gradientUnits="userSpaceOnUse" x1="1178.905" y1="-428.5163" x2="1180.775" y2="-457.0563" gradientTransform="matrix(0.5125 0 0 -0.5125 -352.7569 -117.4306)">
	<stop  offset="0" style="stop-color:#183866"/>
	<stop  offset="1" style="stop-color:#1A7FC1"/>
</linearGradient>
<path class="st11" d="M254.5,104.6c0,1.6-1.3,2.9-2.9,2.9s-2.9-1.3-2.9-2.9c0-1.6,1.3-2.9,2.9-2.9l0,0
	C253.2,101.7,254.5,103,254.5,104.6z"/>
<linearGradient id="SVGID_10_" gradientUnits="userSpaceOnUse" x1="1151.319" y1="-577.286" x2="1153.199" y2="-605.826" gradientTransform="matrix(0.5125 0 0 -0.5125 -352.7569 -117.4306)">
	<stop  offset="0" style="stop-color:#183866"/>
	<stop  offset="1" style="stop-color:#1A7FC1"/>
</linearGradient>
<path class="st12" d="M240.4,180.9c0,1.6-1.3,2.9-2.9,2.9s-2.9-1.3-2.9-2.9c0-1.6,1.3-2.9,2.9-2.9l0,0
	C239.1,178,240.4,179.3,240.4,180.9L240.4,180.9z"/>
<circle class="st13" cx="123.3" cy="180.9" r="2.9"/>
<linearGradient id="SVGID_11_" gradientUnits="userSpaceOnUse" x1="1165.0707" y1="-577.2866" x2="1166.9407" y2="-605.8266" gradientTransform="matrix(0.5125 0 0 -0.5125 -352.7569 -117.4306)">
	<stop  offset="0" style="stop-color:#183866"/>
	<stop  offset="1" style="stop-color:#1A7FC1"/>
</linearGradient>
<path class="st14" d="M247.4,180.9c0,1.6-1.3,2.9-2.9,2.9c-1.6,0-2.9-1.3-2.9-2.9c0-1.6,1.3-2.9,2.9-2.9l0,0
	C246.1,178,247.4,179.3,247.4,180.9L247.4,180.9z"/>
<linearGradient id="SVGID_12_" gradientUnits="userSpaceOnUse" x1="1178.9006" y1="-577.2866" x2="1180.7706" y2="-605.8266" gradientTransform="matrix(0.5125 0 0 -0.5125 -352.7569 -117.4306)">
	<stop  offset="0" style="stop-color:#183866"/>
	<stop  offset="1" style="stop-color:#1A7FC1"/>
</linearGradient>
<path class="st15" d="M254.5,180.9c0,1.6-1.3,2.9-2.9,2.9c-1.6,0-2.9-1.3-2.9-2.9c0-1.6,1.3-2.9,2.9-2.9l0,0
	C253.2,178,254.5,179.3,254.5,180.9L254.5,180.9z"/>
<linearGradient id="SVGID_13_" gradientUnits="userSpaceOnUse" x1="1422.1743" y1="-461.9286" x2="1329.3444" y2="-425.7286" gradientTransform="matrix(0.5125 0 0 -0.5125 -352.7569 -117.4306)">
	<stop  offset="0" style="stop-color:#ECC4D7"/>
	<stop  offset="0.16" style="stop-color:#EDCBD5"/>
	<stop  offset="0.42" style="stop-color:#EFD4D1"/>
	<stop  offset="0.7" style="stop-color:#F2EAC9"/>
</linearGradient>
<path class="st16" d="M368.5,103.4c-0.8,3.3,0.3,7.9-1.3,10.9c-2.6,5.1-10.1,8.4-11.2,14c-0.1,0.3-8.4,4.3-12.7,3
	c-2.3-0.7-3.4-2.9-1.7-7.9c0.5-1.5,3.6-2.1,4.4-3.5l-0.2-0.1c-4.2-3.1-4.6-9.8-3.8-14.2c0.9-4.4,2.8-8.7,5-12.8
	c1.6-3.1,5.3-4.8,8.8-4.8c4.4,0.1,9.1,1.9,11.4,5.6C369.2,96.4,369.3,100.1,368.5,103.4z"/>
<path class="st17" d="M348,79.4c-2.3,1.2-4.7,2.6-7.2,2.2c-0.1,1.2,0.4,2.5,1.4,3.2l-1.6,0.4c-0.1,0-0.3,0.1-0.3,0.2
	c0,0.1,0,0.2,0,0.3c0.4,0.9,1,1.7,1.8,2.2c-0.3,0.6-1.3,0.5-1.7,1c-0.1,0.3-0.1,0.7,0,1c0.4,1,1,1.8,1.7,2.4c-0.9,1-0.4,2.9,0.9,3.4
	c1.4,0.4,2.8-0.4,3.3-1.7c0.1,0.6-0.1,1.2-0.4,1.7c4.3,0.7,8.9,1.3,12.9-0.5c-0.2,0.4-0.3,0.9-0.3,1.3c1,0.3,2,0.4,3,0.2
	c0.2,2.1,0,4.2-0.6,6.3c-0.4,1.3-0.9,2.5-1.1,3.8c-0.3,1.3-0.1,2.7,0.7,3.8c0.7-0.1,1.2-0.7,1.4-1.3c0.2-0.7,0.5-1.3,0.8-1.9
	c1-1.2,3.2-0.8,4,0.6c0.8,1.3,0.5,3.1-0.3,4.4c-1,1.6-2.6,2.7-4.4,3.1c0.1,1.4,0.3,2.9,0.5,4.3c2.7-2.6,5.7-4.8,8.2-7.6
	c2.4-2.8,4.3-6.4,4-10.1c-0.2-2.3-1.2-4.4-1.3-6.7c0-1,0.1-2.1,0.1-3.1c-0.2-3.4-2.4-6.3-5.6-7.4c-1.3-0.4-2.7-0.6-3.9-1.3
	c-1.4-0.9-2.2-2.7-3.6-3.6c-1.5-1-3.9-1.4-5.7-2C352.5,77.4,350.1,78.4,348,79.4z"/>
<linearGradient id="SVGID_14_" gradientUnits="userSpaceOnUse" x1="1303.0153" y1="-490.035" x2="1319.9453" y2="-490.035" gradientTransform="matrix(0.5125 0 0 -0.5125 -352.7569 -117.4306)">
	<stop  offset="0" style="stop-color:#ECC4D7"/>
	<stop  offset="0.42" style="stop-color:#EFD4D1"/>
	<stop  offset="1" style="stop-color:#F2EAC9"/>
</linearGradient>
<path class="st18" d="M315.8,127.9c-0.4,0.2-0.6,0.6-0.7,1c0,0.5,0.4,0.8,0.8,0.9c0.4,0.1,0.9,0.1,1.3-0.1l2.6-0.5
	c-1.4,0.8-2.6,1.9-3.4,3.3c-0.2,0.3-0.2,0.7,0,1.1c0.3,0.4,0.9,0.3,1.4,0.1l2.3-0.9l-1.5,1.5c-0.5,0.4-0.9,0.9-1.2,1.5
	c-0.1,0.3-0.3,0.5-0.3,0.8c-0.1,0.4,0.1,0.8,0.5,0.9c0.1,0,0.2,0,0.4,0c0.9-0.3,1.8-0.7,2.6-1.4c-0.6,0.8-1.2,1.5-1.9,2.2
	c-0.7,0.7-1.1,1.6-1.1,2.6c0,0.1,0,0.2,0.1,0.3c0.1,0.1,0.2,0.1,0.3,0.1c0.8,0.1,1.6-0.5,2.2-1l2.3-2.1c0.4-0.3,0.7-0.7,1-1.1
	c0.2-0.2,0.2-0.5,0.3-0.8c0-0.6-0.5-1-1.1-0.9l0,0c-0.2,0-0.3,0.1-0.5,0.2c0.1-0.4,0.2-0.9,0.3-1.3c0.1-0.4,0.1-0.9-0.1-1.3
	c-0.2-0.4-0.7-0.6-1.1-0.4c0.3-0.5,0.4-1.1,0.5-1.7c0.1-0.6-0.2-1.2-0.8-1.5c-0.1-0.1-0.3-0.1-0.4-0.2c-0.2-0.3,0-0.6,0-0.9
	c0.3-0.8-0.1-1.6-0.9-1.9c0,0,0,0,0,0l0,0c-0.2-0.1-0.4-0.1-0.6-0.1C317.9,126.3,316.8,127.1,315.8,127.9z"/>
<path class="st1" d="M357.8,147.2c5.9-5.2,13.2-1.3,10.6,6.2c-5.5,16.1-17.1,53-28.2,53c-14.4,0-20.2-25.4-20.2-25.4l6.6-13.4
	c0,0,9.4,20.6,14.1,15c4.7-5.6,7.5-26.7,16.7-35L357.8,147.2z"/>
<linearGradient id="SVGID_15_" gradientUnits="userSpaceOnUse" x1="1309.375" y1="-547.8563" x2="1323.5057" y2="-547.8563" gradientTransform="matrix(0.5125 0 0 -0.5125 -352.7569 -117.4306)">
	<stop  offset="0" style="stop-color:#ECC4D7"/>
	<stop  offset="0.42" style="stop-color:#EFD4D1"/>
	<stop  offset="1" style="stop-color:#F2EAC9"/>
</linearGradient>
<path class="st19" d="M324.6,166.6c-0.1-1.2-0.1-2.4-0.1-3.6c0-5.2-1.6-10.3-4.4-14.7c-0.3,0.4-0.4,1-0.4,1.5l0.1,13.6
	c0,1.1,0,2.3-0.2,3.4c-0.2,0.8-0.5,1.6-0.7,2.4c-0.5,1.7-0.7,3.4-0.5,5.1c0,0.9,0.3,1.8,0.7,2.6c0.5,0.8,1.3,1.4,2.2,1.5
	c0.3,0,1.5-2.6,1.7-2.9c0.6-1,1.1-2.1,1.5-3.1c0.4-0.8,1.1-2,1-2.8C325.4,168.6,324.7,167.7,324.6,166.6z"/>
<linearGradient id="SVGID_16_" gradientUnits="userSpaceOnUse" x1="1357.9664" y1="-477.8972" x2="1319.4364" y2="-523.1473" gradientTransform="matrix(0.5125 0 0 -0.5125 -352.7569 -117.4306)">
	<stop  offset="0" style="stop-color:#ECC4D7"/>
	<stop  offset="0.42" style="stop-color:#EFD4D1"/>
	<stop  offset="1" style="stop-color:#F2EAC9"/>
</linearGradient>
<path class="st20" d="M352,123.3c-1.2,1.4-2.5,2.8-3.7,4.2c-0.9,1.2-2.1,2.2-3.3,3.1c-0.5,0.3-1,0.5-1.6,0.7
	c-2.3-0.7-3.4-2.9-1.7-7.9c0.5-1.5,3.6-2.1,4.4-3.5l-0.2-0.1c0.6,0.3,1.2,0.5,1.9,0.6c1.3,0.2,4.6-0.8,5,1.1
	C353,122.1,352.5,122.8,352,123.3z"/>
<path class="st1" d="M203,230.6l5.2,8c0.5,0.7,1.5,1,2.2,0.5c0.1-0.1,0.2-0.2,0.3-0.3l14.2-16.4c0.6-0.7,0.5-1.7-0.2-2.3
	c-0.3-0.3-0.7-0.4-1-0.4h-0.1c-0.5,0-0.9,0.2-1.2,0.6l-11.1,13.3c-0.6,0.7-1.6,0.8-2.2,0.2c-0.1-0.1-0.2-0.2-0.3-0.4l-3-4.6
	c-0.3-0.5-1-0.8-1.6-0.7l0,0c-0.9,0.1-1.5,1-1.3,1.8C202.8,230.3,202.9,230.5,203,230.6L203,230.6z"/>
<path class="st1" d="M140.8,271.2l6.5,6.4c0.6,0.6,0.6,1.7,0,2.3c-0.3,0.3-0.7,0.5-1.2,0.5h-0.3c-0.4,0-0.8-0.2-1.1-0.5l-6.3-6.3
	c-0.6-0.6-1.7-0.6-2.3,0l-6.3,6.3c-0.3,0.3-0.7,0.5-1.1,0.5h-0.3c-0.9,0-1.6-0.7-1.6-1.6c0-0.4,0.2-0.8,0.5-1.2l6.5-6.4
	c0.6-0.6,0.6-1.6,0-2.3l0,0l-6.6-6.6c-0.6-0.6-0.6-1.7,0-2.3c0.3-0.3,0.7-0.5,1.1-0.5l0,0c0.4,0,0.8,0.2,1.1,0.5l6.7,6.6
	c0.6,0.6,1.6,0.6,2.3,0l6.7-6.6c0.3-0.3,0.7-0.5,1.1-0.5l0,0c0.9,0,1.6,0.7,1.6,1.6c0,0.4-0.2,0.8-0.5,1.1l-6.6,6.6
	C140.1,269.6,140.1,270.6,140.8,271.2L140.8,271.2L140.8,271.2z"/>
<polygon class="st1" points="82.8,251.1 84.4,251.1 85.2,287 84.4,281.1 82.8,281.1 "/>
<path class="st21" d="M83.2,266.9"/>
<path class="st1" d="M84.4,264.2L84.4,264.2c0,1.2-0.4,2.3-0.8,3.6c-2.8,0.8-4.7,1.5-7.4-1.4c-2.7-2.8-5.6-8.3-4.7-11.1
	c2.8-0.8,8.3,2.1,11,5C83.9,261.8,84.4,263,84.4,264.2z"/>
<path class="st1" d="M92.6,266.5c-2.5,2.4-4.3,2.1-6.6,1.4v13.3h-1.6v-30H86v9.5c0.1-0.2,0.3-0.3,0.5-0.5c2.8-2.7,8.3-5.6,11.1-4.7
	C98.4,258.3,95.4,263.7,92.6,266.5z"/>
<linearGradient id="SVGID_17_" gradientUnits="userSpaceOnUse" x1="859.4114" y1="1398.0958" x2="865.6115" y2="1344.5958" gradientTransform="matrix(0.5125 0 0 0.5125 -352.7569 -434.1785)">
	<stop  offset="0.1" style="stop-color:#000000;stop-opacity:0.77"/>
	<stop  offset="0.99" style="stop-color:#000000;stop-opacity:0"/>
</linearGradient>
<path class="st22" d="M92.6,266.5c-2.5,2.4-4.3,2.1-6.6,1.4v13.3h-1.6v-30H86v9.5c0.1-0.2,0.3-0.3,0.5-0.5c2.8-2.7,8.3-5.6,11.1-4.7
	C98.4,258.3,95.4,263.7,92.6,266.5z"/>
<path class="st1" d="M84.4,243.9h-7.1c0,5,3.2,9.1,7.1,9.1l1.7-4.5L84.4,243.9z"/>
<path class="st1" d="M84.5,245.6l-0.1,0.1v-0.5L84.5,245.6z"/>
<path class="st1" d="M70.9,233.6c-0.9,2.8,1.9,8.3,4.7,11.1c2.8,2.8,4.6,2.2,7.4,1.4c0.9-2.8,1.7-4.7-1.1-7.5S73.7,232.8,70.9,233.6
	z"/>
<path class="st1" d="M92.1,244.7c-0.2,0.2-0.5,0.4-0.7,0.6c-0.5,4.3-3.5,7.6-7,7.6v-7.3l0.1-0.1l-0.1-0.4v0.5
	c-0.2,0.1-0.3,0.2-0.5,0.3c-2.5-1.5-4.6-6.1-4.4-10.1c0.2-4,2.2-9.8,4.8-11.1c2.5,1.5,4.2,7.4,4,11.4v0.3c2.9-2,6.7-3.5,8.8-2.8
	C97.8,236.5,94.9,242,92.1,244.7z"/>
<linearGradient id="SVGID_18_" gradientUnits="userSpaceOnUse" x1="882.8552" y1="1316.2065" x2="851.0353" y2="1313.1066" gradientTransform="matrix(0.5125 0 0 0.5125 -352.7569 -434.1785)">
	<stop  offset="0.1" style="stop-color:#000000;stop-opacity:0.77"/>
	<stop  offset="0.99" style="stop-color:#000000;stop-opacity:0"/>
</linearGradient>
<path class="st23" d="M92.1,244.7c-0.2,0.2-0.5,0.4-0.7,0.6c-0.5,4.3-3.5,7.6-7,7.6v-7.3l0.1-0.1l-0.1-0.4v0.5
	c-0.2,0.1-0.3,0.2-0.5,0.3c-2.5-1.5-4.6-6.1-4.4-10.1c0.2-4,2.2-9.8,4.8-11.1c2.5,1.5,4.2,7.4,4,11.4v0.3c2.9-2,6.7-3.5,8.8-2.8
	C97.8,236.5,94.9,242,92.1,244.7z"/>
<path class="st1" d="M84.5,245.6l-0.1,0.1v-0.5L84.5,245.6z"/>
<polygon class="st1" points="70.3,276.5 72.8,296.7 84.4,296.7 89.1,285.2 84.4,276 "/>
<polygon class="st1" points="98.5,276.5 96,296.7 84.4,296.7 84.4,276 "/>
<path class="st1" d="M89.6,276.1l-0.1,0.1l-3.9,1.9l-1.1,0.5H68.8c-1,0-1.8-0.8-1.8-1.8v-4.5c0-0.9,0.7-1.6,1.6-1.6c0,0,0,0,0,0h0.1
	l15.7,0L89.6,276.1z"/>
<linearGradient id="SVGID_19_" gradientUnits="userSpaceOnUse" x1="842.0344" y1="1317.2562" x2="840.9344" y2="1388.6563" gradientTransform="matrix(0.5125 0 0 0.5125 -352.7569 -434.1785)">
	<stop  offset="0.36" style="stop-color:#000000;stop-opacity:0.77"/>
	<stop  offset="0.99" style="stop-color:#000000;stop-opacity:0"/>
</linearGradient>
<path class="st24" d="M89.6,276.1l-0.1,0.1l-3.9,1.9l-1.1,0.5H68.8c-1,0-1.8-0.8-1.8-1.8v-4.5c0-0.9,0.7-1.6,1.6-1.6c0,0,0,0,0,0
	h0.1l15.7,0L89.6,276.1z"/>
<path class="st1" d="M100,278.6H84.4v-8.1H100c1,0,1.8,0.8,1.8,1.8v4.5C101.8,277.8,101,278.6,100,278.6z"/>
<linearGradient id="SVGID_20_" gradientUnits="userSpaceOnUse" x1="839.0904" y1="1377.3564" x2="840.2204" y2="1415.2764" gradientTransform="matrix(0.5125 0 0 0.5125 -352.7569 -434.1785)">
	<stop  offset="1.000000e-02" style="stop-color:#000000"/>
	<stop  offset="0.1" style="stop-color:#000000;stop-opacity:0.77"/>
	<stop  offset="0.99" style="stop-color:#000000;stop-opacity:0"/>
</linearGradient>
<polygon class="st25" points="84.4,278.6 84.4,296.7 72.8,296.7 70.6,278.6 "/>
<linearGradient id="SVGID_21_" gradientUnits="userSpaceOnUse" x1="877.9046" y1="1382.8459" x2="853.4046" y2="1428.736" gradientTransform="matrix(0.5125 0 0 0.5125 -352.7569 -434.1785)">
	<stop  offset="1.000000e-02" style="stop-color:#000000"/>
	<stop  offset="0.1" style="stop-color:#000000;stop-opacity:0.77"/>
	<stop  offset="0.99" style="stop-color:#000000;stop-opacity:0"/>
</linearGradient>
<polygon class="st26" points="98.2,278.6 96,296.7 84.4,296.7 84.4,278.6 "/>
<linearGradient id="SVGID_22_" gradientUnits="userSpaceOnUse" x1="879.2734" y1="1349.5757" x2="864.9234" y2="1399.1357" gradientTransform="matrix(0.5125 0 0 0.5125 -352.7569 -434.1785)">
	<stop  offset="0.1" style="stop-color:#000000;stop-opacity:0.77"/>
	<stop  offset="0.99" style="stop-color:#000000;stop-opacity:0"/>
</linearGradient>
<path class="st27" d="M101.8,272.6v4.5c0,1-0.8,1.8-1.8,1.8H84.4v-8.1H100C101,270.8,101.8,271.6,101.8,272.6z"/>
<path class="st28" d="M74.2,296.8l-29.4,5.6c-1,0-1.8,0.8-1.8,1.8c0,1,0.8,1.8,1.8,1.8c0.1,0,0.2,0,0.3,0h0.1h332.1
	c1,0,1.8-0.7,1.9-1.7c0-1-0.7-1.8-1.6-1.9l-42.9-5.4h-0.2l-259.8-0.3C74.4,296.7,74.3,296.7,74.2,296.8z"/>
</svg>
