<?xml version="1.0" encoding="utf-8"?>
<!-- Generator: Adobe Illustrator 21.1.0, SVG Export Plug-In . SVG Version: 6.00 Build 0)  -->
<svg version="1.1" id="Layer_1" xmlns="http://www.w3.org/2000/svg" xmlns:xlink="http://www.w3.org/1999/xlink" x="0px" y="0px"
	 viewBox="0 0 406 316.5" style="enable-background:new 0 0 406 316.5;" xml:space="preserve">
<style type="text/css">
	.st0{fill:#E0D1F1;}
	.st1{opacity:0.45;fill:#E6E6E6;enable-background:new    ;}
	.st2{opacity:0.58;fill:#683EA3;enable-background:new    ;}
	.st3{opacity:0.73;fill:#683EA3;enable-background:new    ;}
	.st4{fill:#683EA3;}
	.st5{fill:#24285B;}
	.st6{fill:#C9C9C9;}
	.st7{fill:#E6E6E6;}
	.st8{opacity:0.56;fill:#FFFFFF;enable-background:new    ;}
	.st9{fill:#FFD200;}
	.st10{opacity:9.000000e-02;enable-background:new    ;}
	.st11{opacity:3.000000e-02;enable-background:new    ;}
	.st12{opacity:0.5;fill:#FFFFFF;enable-background:new    ;}
	.st13{opacity:0.75;}
	.st14{fill:#FFFFFF;}
	.st15{opacity:0.28;fill:#FFFFFF;enable-background:new    ;}
	.st16{opacity:0.3;fill:#C9C9C9;enable-background:new    ;}
</style>
<path class="st0" d="M152.1,70.5C126.9,88.2,87,99.2,32,148.8s19.4,141.9,67.4,156.6s116.3,14.7,186,0s117.8-25.6,117.8-82.2
	s-32.6-52.7-48.8-98.4S324.2,13.9,244.4,1.5S180.5,50.7,152.1,70.5z"/>
<ellipse class="st1" cx="207.9" cy="254.3" rx="155.1" ry="9.6"/>
<path class="st2" d="M333.9,238.7c0,0-9.8-2.7-12-11.8c0,0,15.2-3,15.7,12.6L333.9,238.7z"/>
<path class="st3" d="M335.1,237.8c0,0-6.9-10.9-0.8-21c0,0,11.6,7.3,6.4,21L335.1,237.8z"/>
<path class="st4" d="M336.9,237.8c0,0,3.6-11.5,14.6-13.6c0,0,2,7.4-7.1,13.7L336.9,237.8z"/>
<polygon class="st5" points="329.8,237.5 331.7,251.1 344.3,251.2 346.1,237.6 "/>
<polygon class="st6" points="183.3,187.4 172.1,245.6 226.6,245.6 215.4,187.4 "/>
<rect x="164.7" y="239.8" class="st7" width="69" height="11.7"/>
<rect x="96" y="64.1" class="st7" width="212.6" height="138.4"/>
<rect x="96" y="64.1" class="st8" width="212.6" height="122.5"/>
<circle class="st5" cx="112.3" cy="63.6" r="4.5"/>
<circle class="st4" cx="125.6" cy="63.6" r="4.5"/>
<circle class="st9" cx="138.2" cy="63.6" r="4.5"/>
<polygon class="st9" points="88.3,253.8 97.7,212 128.8,212 119.7,253.8 "/>
<polygon class="st9" points="128.8,212 138.1,253.8 119.7,253.8 "/>
<polygon class="st10" points="128.8,212 138.1,253.8 119.7,253.8 "/>
<polygon class="st11" points="96,90 96,103.2 308.6,103.2 308.6,79.1 219,64.9 119.7,76.6 104.5,79.7 96.1,88.7 "/>
<polygon class="st12" points="101.6,219.3 97.7,236.7 117.5,236.7 120.9,219.3 "/>
<polygon class="st4" points="308.3,48.2 202.2,48.2 201.3,48.2 95.1,48.2 76.8,80.3 201.3,80.3 202.2,80.3 326.6,80.3 "/>
<path class="st4" d="M104.5,80.4h27.7l0,0v0.1c0,7.5-6.1,13.7-13.7,13.7h-0.3c-7.5,0-13.7-6.1-13.7-13.7V80.4L104.5,80.4z"/>
<path class="st4" d="M160.2,80.4h27.7l0,0v0.1c0,7.5-6.1,13.7-13.7,13.7l0,0h-0.3c-7.5,0-13.7-6.1-13.7-13.7v0L160.2,80.4
	L160.2,80.4z"/>
<path class="st4" d="M215.6,80.4h27.7l0,0v0.1c0,7.5-6.1,13.7-13.7,13.7l0,0h-0.3c-7.5,0-13.7-6.1-13.7-13.7v0L215.6,80.4
	L215.6,80.4z"/>
<path class="st4" d="M271.3,80.4H299l0,0v0.1c0,7.5-6.1,13.7-13.7,13.7H285c-7.5,0-13.7-6.1-13.7-13.7L271.3,80.4L271.3,80.4z"/>
<path class="st4" d="M187.9,80.4v0.1c0,7.5,6.1,13.7,13.7,13.7l0,0h0.3c7.5,0,13.7-6.1,13.7-13.7v0V48.2h-27.7V80.4z"/>
<path class="st4" d="M132.5,80.4v0.1c0,7.5,6.1,13.7,13.7,13.7l0,0h0.3c7.5,0,13.7-6.1,13.7-13.7v0v-0.1l3.3-32.1h-24.4L132.5,80.4z
	"/>
<path class="st4" d="M76.8,80.4v0.1c0,7.5,6.1,13.7,13.7,13.7h0.3c7.5,0,13.7-6.1,13.7-13.7v-0.1l12.3-32.1H95.1L76.8,80.4z"/>
<path class="st4" d="M264.3,48.2h-24.4l3.3,32.1h0.4v0.1c0,7.5,6.1,13.7,13.7,13.7l0,0h0.3c7.5,0,13.7-6.1,13.7-13.7v0v-0.1h-0.4
	L264.3,48.2z"/>
<path class="st4" d="M308.3,48.2h-21.7L299,80.4v0.1c0,7.5,6.1,13.7,13.7,13.7h0.3c7.5,0,13.7-6.1,13.7-13.7v-0.1L308.3,48.2z"/>
<g class="st13">
	<path class="st14" d="M187.9,80.4v0.1c0,7.5,6.1,13.7,13.7,13.7l0,0h0.3c7.5,0,13.7-6.1,13.7-13.7v0V48.2h-27.7V80.4z"/>
	<path class="st14" d="M132.5,80.4v0.1c0,7.5,6.1,13.7,13.7,13.7l0,0h0.3c7.5,0,13.7-6.1,13.7-13.7v0v-0.1l3.3-32.1h-24.4
		L132.5,80.4z"/>
	<path class="st14" d="M76.8,80.4v0.1c0,7.5,6.1,13.7,13.7,13.7h0.3c7.5,0,13.7-6.1,13.7-13.7v-0.1l12.3-32.1H95.1L76.8,80.4z"/>
	<path class="st14" d="M264.3,48.2h-24.4l3.3,32.1h0.4v0.1c0,7.5,6.1,13.7,13.7,13.7l0,0h0.3c7.5,0,13.7-6.1,13.7-13.7v0v-0.1h-0.4
		L264.3,48.2z"/>
	<path class="st14" d="M308.3,48.2h-21.7L299,80.4v0.1c0,7.5,6.1,13.7,13.7,13.7h0.3c7.5,0,13.7-6.1,13.7-13.7v-0.1L308.3,48.2z"/>
</g>
<rect x="95.1" y="36.3" class="st4" width="213.5" height="11.9"/>
<rect x="151.6" y="122.6" class="st5" width="102.4" height="44.5"/>
<rect x="160.2" y="130.5" class="st14" width="27.7" height="27.7"/>
<path class="st4" d="M178.1,136.3c-1-0.1-2,0-2.9,0.1c-0.8,0.1-1.7,0.1-2.5,0c-1-0.2-1.9-0.2-2.9-0.1c-1.2,0.1-2.3,0.7-3,1.6
	l-3.1,3.9l3,2.6l1.9-2.4v8.1h10.8v-8.1l1.9,2.4l3-2.6l-3.1-3.9C180.4,136.9,179.3,136.3,178.1,136.3z"/>
<path class="st10" d="M171.7,136.3c0,0-0.6,3.3,2,3.3c2.6,0,2.1-3.2,2.1-3.2C174.4,136.5,173.1,136.5,171.7,136.3z"/>
<circle class="st9" cx="253.6" cy="125.8" r="10.4"/>
<rect x="196.5" y="135.3" class="st14" width="37.2" height="6.4"/>
<rect x="196.5" y="146.8" class="st15" width="37.2" height="6.4"/>
<rect x="106" y="118.1" class="st16" width="36.7" height="60.3"/>
<rect x="294.1" y="123.9" class="st6" width="10.2" height="41.6"/>
</svg>
