<?xml version="1.0" encoding="UTF-8"?>
<svg width="100px" height="24px" viewBox="0 0 100 24" version="1.1" xmlns="http://www.w3.org/2000/svg" xmlns:xlink="http://www.w3.org/1999/xlink">
    <!-- Generator: Sketch 51 (57462) - http://www.bohemiancoding.com/sketch -->
    <title>Nvo Logo OnePay-A_1</title>
    <desc>Created with Sketch.</desc>
    <defs></defs>
    <g id="Page-1" stroke="none" stroke-width="1" fill="none" fill-rule="evenodd">
        <g id="Nvo-Logo-OnePay-A_1">
            <g id="Group" fill="#231F20">
                <path d="M49.4,8.8 C49.4,4 45.5,0 40.7,0 C35.8,0 31.9,4.1 31.9,9.1 C31.9,14.1 35.8,18 40.8,18 C44.4,18 47.8,15.5 48.9,12.1 L44.5,12.1 C43.6,13.6 42.4,14.3 40.7,14.3 C38.7,14.3 36.8,12.8 36.2,10.8 L49.2,10.8 C49.3,9.8 49.4,9.4 49.4,8.8 Z M36,7.6 C36.5,5.2 38.4,3.7 40.8,3.7 C43.1,3.7 44.9,5.2 45.5,7.6 L36,7.6 Z" id="Shape"></path>
                <g fill-rule="nonzero" id="Shape">
                    <path d="M8.7,0.2 C10.3,0.2 11.8,0.6 13.2,1.4 C14.6,2.2 15.7,3.3 16.5,4.6 C17.3,6 17.7,7.4 17.7,9 C17.7,10.6 17.3,12.1 16.5,13.5 C15.7,14.9 14.6,16 13.3,16.7 C11.9,17.5 10.4,17.9 8.8,17.9 C6.4,17.9 4.3,17 2.6,15.3 C0.9,13.6 0,11.5 0,9 C0,6.4 1,4.2 2.9,2.4 C4.6,0.9 6.5,0.2 8.7,0.2 Z M8.8,4.1 C7.5,4.1 6.4,4.6 5.5,5.5 C4.7,6.4 4.2,7.6 4.2,9 C4.2,10.5 4.6,11.7 5.5,12.6 C6.4,13.5 7.5,14 8.8,14 C10.1,14 11.2,13.5 12.1,12.6 C13,11.7 13.4,10.5 13.4,9.1 C13.4,7.7 13,6.5 12.1,5.6 C11.3,4.6 10.2,4.1 8.8,4.1 Z"></path>
                    <path d="M17.3,0.6 L21.5,0.6 L21.5,2.3 C22.5,1.5 23.3,0.9 24.1,0.6 C24.9,0.3 25.7,0.1 26.5,0.1 C28.2,0.1 29.6,0.7 30.8,1.9 C31.8,2.9 32.3,4.4 32.3,6.3 L32.3,17.4 L28.1,17.4 L28.1,10 C28.1,8 28,6.7 27.8,6 C27.6,5.3 27.3,4.8 26.9,4.5 C26.5,4.2 25.9,4 25.2,4 C24.3,4 23.6,4.3 23,4.9 C22.4,5.5 22,6.3 21.7,7.3 C21.6,7.8 21.5,9 21.5,10.7 L21.5,17.5 L17.3,17.5 L17.3,0.6 Z"></path>
                </g>
            </g>
            <g id="Group" transform="translate(49.000000, 0.000000)" fill="#FAAC3E">
                <path d="M3.9,23.1 L3.9,15.9 C5.6,17.5 6.9,18.1 9.1,18.1 C13.8,18.1 17.6,14.1 17.6,9 C17.6,3.9 13.9,0.1 9.2,0.1 C6.9,0.1 5,1 3.7,2.7 L3.7,0.7 L-7.10542736e-15,0.7 L-7.10542736e-15,23.2 L3.9,23.2 L3.9,23.1 Z M8.6,3.7 C11.3,3.7 13.5,6.1 13.5,9 C13.5,11.9 11.3,14.3 8.6,14.3 C5.9,14.3 3.7,12 3.7,9 C3.6,6 5.8,3.7 8.6,3.7 Z" id="Shape"></path>
                <path d="M30.4,0.6 L30.4,2.7 C29.1,1.1 26.8,0 24.7,0 C19.9,0 16.3,3.8 16.3,8.9 C16.3,14.1 19.8,18 24.5,18 C26.6,18 29.2,16.9 30.4,15.4 L30.4,17.5 L34.1,17.5 L34.1,0.6 L30.4,0.6 Z M25.3,14.3 C22.5,14.3 20.3,12 20.3,9.1 C20.3,6 22.5,3.7 25.3,3.7 C28.2,3.7 30.3,5.9 30.3,8.9 C30.3,12.1 28.2,14.3 25.3,14.3 Z" id="Shape"></path>
                <polygon id="Shape" points="41.3 23.1 51 0.6 46.4 0.6 42.3 11.4 38.5 0.6 33.9 0.6 40 15.8 36.9 23.1"></polygon>
            </g>
        </g>
    </g>
</svg>