<?xml version="1.0" encoding="UTF-8"?>
<svg width="120px" height="24px" viewBox="0 0 120 24" version="1.1" xmlns="http://www.w3.org/2000/svg" xmlns:xlink="http://www.w3.org/1999/xlink">
    <!-- Generator: Sketch 50 (54983) - http://www.bohemiancoding.com/sketch -->
    <title>red_compra copy</title>
    <desc>Created with Sketch.</desc>
    <defs></defs>
    <g id="Page-1" stroke="none" stroke-width="1" fill="none" fill-rule="evenodd">
        <g id="Crédito-1-Copy" transform="translate(-779.000000, -256.000000)">
            <g id="red_compra-copy" transform="translate(779.000000, 256.000000)">
                <polyline id="Fill-1" fill="#D8232A" points="0 0 57.3913043 0 50.7006884 24 0 24 0 0"></polyline>
                <polyline id="Fill-2" fill="#292D78" points="120 0 113.1715 24 51.1304348 24 57.8755173 0 120 0"></polyline>
                <path d="M66.0677058,10.9960565 C66.1976014,10.2244612 66.2502092,9.56655241 66.2211991,9.01875127 C66.1924056,8.47263438 66.1016952,8.01999316 65.9495008,7.66272239 C65.7981724,7.3018726 65.6002981,7.01976133 65.3595582,6.81933601 C65.1203338,6.61385795 64.8538313,6.47027595 64.566762,6.38522151 C64.2738474,6.30164078 63.975304,6.25658719 63.6635545,6.2614294 C63.0694985,6.25658719 62.4970919,6.38164248 61.9441695,6.62059494 C61.3908142,6.85933686 60.8664689,7.23345009 60.3791439,7.73451339 C59.8848911,8.23873466 59.4330708,8.88674846 59.0223842,9.68171275 C58.6069347,10.4733086 58.2514537,11.4217498 57.9397042,12.5291418 C57.6275218,13.637797 57.4458844,14.5997122 57.4032354,15.4030977 C57.3595038,16.2130097 57.4359258,16.8776555 57.6335836,17.3936664 C57.8247466,17.9147302 58.1276199,18.3040016 58.5339767,18.5475858 C58.9342717,18.7981174 59.427875,18.921699 60.0085084,18.921699 C60.507524,18.9301202 60.998313,18.8549607 61.4717825,18.7046417 C61.9513138,18.552849 62.4085464,18.2888434 62.8597171,17.9079932 C63.3046096,17.5324062 63.7332651,16.9995528 64.1482816,16.3216436 C64.5622156,15.6454187 64.9523355,14.7835056 65.3275173,13.7415887 C64.6360397,13.7415887 63.9501908,13.7415887 63.2641255,13.7415887 C63.0920138,14.2373887 62.8809334,14.6664505 62.6362967,15.0239318 C62.3853816,15.384571 62.1143328,15.6631033 61.8248821,15.8588969 C61.5341324,16.0553222 61.2401353,16.1511137 60.9396435,16.1546927 C60.5244105,16.1546927 60.212228,16.0111107 60.0013641,15.7287889 C59.784655,15.4481513 59.679656,15.0338267 59.6770581,14.4946573 C59.6746767,13.9569617 59.7790261,13.3005267 59.9937869,12.5291418 C60.2083311,11.7573359 60.4681224,11.1080589 60.7666658,10.5768897 C61.0658587,10.0444573 61.3970925,9.63813288 61.7644806,9.36275859 C62.1268894,9.08717378 62.5139783,8.94674973 62.9246649,8.94674973 C63.1959303,8.94359177 63.4234641,9.00380358 63.6070499,9.13054312 C63.7895532,9.26086169 63.9129541,9.47455045 63.9930564,9.77350418 C64.0668804,10.0741422 64.0703443,10.4817298 64.0131902,10.9960565 C64.6962246,10.9960565 65.3792591,10.9960565 66.0677058,10.9960565 Z M66.3231672,12.5291418 C66.0254897,13.637797 65.8668006,14.5997122 65.8399555,15.4030977 C65.812028,16.2130097 65.9079342,16.8776555 66.1278908,17.3936664 C66.3469814,17.9147302 66.6656586,18.3040016 67.0962626,18.5475858 C67.5262171,18.7981174 68.047748,18.921699 68.6547935,18.921699 C69.261839,18.921699 69.8483177,18.7981174 70.4042709,18.5475858 C70.9634715,18.3040016 71.4910642,17.9147302 71.9786058,17.3936664 C72.4696112,16.8776555 72.9136377,16.2130097 73.3109018,15.4030977 C73.7111968,14.5997122 74.0515233,13.637797 74.3407575,12.5291418 C74.6191671,11.4234341 74.7681141,10.4747823 74.7787222,9.683397 C74.7953921,8.88674846 74.6916921,8.2404189 74.4689212,7.73451339 C74.2506965,7.23345009 73.9279059,6.85933686 73.5027143,6.62059494 C73.083368,6.38164248 72.5722287,6.25658719 71.9755749,6.2614294 C71.3817354,6.25658719 70.8056484,6.38164248 70.2557569,6.62059494 C69.7058655,6.85933686 69.1914789,7.23345009 68.7054528,7.73451339 C68.2176947,8.23873466 67.7741012,8.88674846 67.3740227,9.683397 C66.9741607,10.4747823 66.6204117,11.4217498 66.3231672,12.5291418 Z M68.3824457,12.5291418 C68.5870313,11.7573359 68.8381628,11.1080589 69.1297784,10.5768897 C69.4222601,10.0442468 69.7532774,9.63813288 70.1120058,9.36275859 C70.4707342,9.08717378 70.861287,8.94674973 71.2717571,8.94674973 C71.6824438,8.94674973 71.9939767,9.08717378 72.2078715,9.36275859 C72.4276116,9.63813288 72.5378064,10.0442468 72.5533938,10.5768897 C72.5687648,11.1078484 72.4763224,11.7573359 72.2762832,12.5291418 C72.0764604,13.3005267 71.8300918,13.9556985 71.5356617,14.4946573 C71.2416646,15.0327741 70.9156266,15.4481513 70.5486715,15.7287889 C70.1860463,16.0111107 69.7963594,16.1546927 69.38091,16.1546927 C68.9658935,16.1546927 68.6463503,16.0111107 68.431806,15.7287889 C68.2168288,15.4481513 68.1007887,15.0340373 68.0914795,14.4946573 C68.0819538,13.9569617 68.1776436,13.3005267 68.3824457,12.5291418 Z M83.4315021,18.4724263 C84.1015469,18.4724263 84.7713753,18.4724263 85.4414202,18.4724263 C85.7611799,17.1216607 86.0796407,15.777211 86.396586,14.437814 C86.7124488,13.1036804 87.0270127,11.7724941 87.3404941,10.4482554 C87.521915,9.683397 87.6063471,9.04043594 87.5946565,8.51937221 C87.5883782,7.99851902 87.5058945,7.58082591 87.3513187,7.27029298 C87.2030212,6.95807581 87.0023325,6.73428157 86.751201,6.59385753 C86.498987,6.45701251 86.2203609,6.38837947 85.9140238,6.39174796 C85.3645653,6.39511645 84.8369726,6.58564683 84.3310292,6.96460226 C83.8244363,7.34208399 83.3459875,7.87977965 82.9004455,8.57789977 C82.9108371,8.13199554 82.8642912,7.74967161 82.7629726,7.42040144 C82.6662004,7.09828932 82.5005835,6.84375759 82.2747816,6.66564853 C82.0450829,6.48480257 81.7409106,6.39511645 81.3585846,6.39174796 C81.0678349,6.39511645 80.784013,6.45343348 80.4975931,6.56375162 C80.2098743,6.68080675 79.939042,6.8288099 79.6742714,7.02144558 C79.4136142,7.2109233 79.1789361,7.42545418 78.9596291,7.6593539 C78.7448683,7.89472733 78.5597671,8.1351535 78.4047583,8.38084295 C78.3943666,8.38084295 78.3891708,8.38084295 78.383975,8.38084295 C78.5255612,7.81788359 78.6669309,7.25513477 78.8078677,6.69407019 C78.1709462,6.69407019 77.5338082,6.69407019 76.8966702,6.69407019 C76.4050153,8.6280061 75.9094635,10.5752055 75.4119633,12.5306155 C74.9112157,14.4980258 74.4065713,16.4818576 73.8997619,18.4741105 C74.5695903,18.4741105 75.2396351,18.4741105 75.9148759,18.4741105 C76.1863577,17.3936664 76.45719,16.3165909 76.7265069,15.2443575 C76.9953909,14.1740189 77.2631923,13.1102068 77.5301278,12.0463947 C77.6459514,11.587227 77.7886201,11.1846921 77.9466598,10.8457375 C78.1150911,10.5082567 78.2902337,10.2244612 78.486809,10.0023512 C78.6836009,9.77687267 78.885805,9.61329024 79.0962359,9.49960361 C79.3053679,9.39118025 79.5164483,9.33770543 79.7296936,9.33770543 C79.8710633,9.33433693 80.0031238,9.36781133 80.1284731,9.42781261 C80.2527399,9.49286663 80.3514606,9.59981627 80.4332948,9.75181951 C80.5110157,9.90045425 80.5534482,10.1076166 80.5623244,10.3663589 C80.5703347,10.6284698 80.5218403,10.9510029 80.4298309,11.3449061 C80.1388647,12.5221943 79.8463831,13.70643 79.553685,14.8921395 C79.2599044,16.0810069 78.9643919,17.2751376 78.6682299,18.4741105 C79.3382748,18.4741105 80.0081032,18.4741105 80.678148,18.4741105 C80.9416196,17.3936664 81.2046583,16.3165909 81.4661814,15.2443575 C81.7272716,14.1740189 81.9870628,13.1102068 82.2462046,12.0463947 C82.3585643,11.587227 82.4982021,11.1844816 82.6592726,10.8457375 C82.8194772,10.5082567 82.9980837,10.2244612 83.1877313,10.0023512 C83.3780284,9.77687267 83.5787171,9.61329024 83.788282,9.49960361 C83.9915687,9.39118025 84.1970202,9.33770543 84.4050697,9.33770543 C84.5516353,9.33433693 84.6893246,9.36781133 84.8203027,9.42781261 C84.944786,9.49455087 85.0495684,9.59981627 85.1324851,9.75181951 C85.211505,9.90045425 85.2604323,10.1076166 85.2660611,10.3663589 C85.2762363,10.6284698 85.2351027,10.9524767 85.1407119,11.3449061 C84.8584054,12.5221943 84.5741505,13.7062195 84.2905451,14.8904552 C84.0052077,16.0810069 83.7190044,17.2751376 83.4315021,18.4724263 Z M90.1204767,12.5958801 C90.2501559,12.0348155 90.4162057,11.5438577 90.6132141,11.1213224 C90.810006,10.6985765 91.0280141,10.3432005 91.2646406,10.0608787 C91.5021331,9.77729374 91.7480688,9.56655241 92.0048291,9.42107562 C92.26094,9.28086211 92.511422,9.20738686 92.7610381,9.20738686 C93.01585,9.20738686 93.2384045,9.28086211 93.4300005,9.42107562 C93.6207306,9.56655241 93.77076,9.77687267 93.8783569,10.0608787 C93.991366,10.34299 94.0465717,10.6985765 94.0500356,11.1213224 C94.0534994,11.5438577 93.9894176,12.0348155 93.8681817,12.5958801 C93.7363376,13.1569446 93.5772155,13.6529552 93.3819391,14.0771748 C93.1860132,14.5030786 92.9686546,14.8603493 92.7244508,15.1525661 C92.4858759,15.4397301 92.2377752,15.6553136 91.978417,15.8022641 C91.7192753,15.9475304 91.460783,16.0210056 91.2031567,16.0210056 C90.9509427,16.0210056 90.7314191,15.9475304 90.5389571,15.8022641 C90.3469281,15.6553136 90.1968987,15.4397301 90.0899513,15.1525661 C89.9840863,14.8603493 89.9301797,14.5030786 89.9293137,14.0771748 C89.9280147,13.6529552 89.9903646,13.1569446 90.1204767,12.5958801 Z M85.7611799,22.9565217 C86.4355546,22.9565217 87.1101459,22.9565217 87.7899329,22.9565217 C88.0161678,21.9811325 88.2424026,21.0040591 88.4669056,20.0339332 C88.6909755,19.0654915 88.9148289,18.098313 89.1378164,17.1332398 C89.1432287,17.1332398 89.1484246,17.1332398 89.1590327,17.1332398 C89.2070941,17.4938791 89.3090621,17.8063068 89.4744625,18.0717861 C89.6340177,18.3389497 89.8552732,18.5475858 90.126755,18.6979047 C90.3995358,18.843171 90.7255738,18.9183305 91.0994567,18.921699 C91.5859158,18.9183305 92.0747562,18.7631693 92.5542876,18.4623208 C93.0344683,18.1568406 93.4953813,17.7244103 93.9279337,17.158293 C94.363517,16.5989127 94.7562347,15.9241615 95.0991591,15.1407764 C95.4453309,14.3643388 95.7282869,13.4908465 95.9426147,12.5291418 C96.1718804,11.4985935 96.2783948,10.5983639 96.272333,9.83203174 C96.2619414,9.06212061 96.1597568,8.42589654 95.9571197,7.91662254 C95.7495032,7.40882225 95.4674132,7.02649832 95.1047879,6.77428242 C94.7380493,6.51701379 94.3109093,6.39174796 93.8190379,6.39174796 C93.5462571,6.38522151 93.2756412,6.43532784 93.0052418,6.532172 C92.7335435,6.63238466 92.4469072,6.82102026 92.1455494,7.0947103 C91.8450575,7.36376866 91.5105763,7.75788231 91.1421057,8.27220905 C91.1314976,8.27220905 91.1265183,8.27220905 91.1213224,8.27220905 C91.2432078,7.74609259 91.3650932,7.21997612 91.4865456,6.69575443 C90.8496241,6.69575443 90.2124861,6.69575443 89.5755646,6.69575443 C88.9531481,9.34928462 88.3251028,12.02471 87.6922947,14.7235043 C87.0538578,17.4452465 86.410225,20.1893049 85.7611799,22.9565217 Z M95.7064211,18.4724263 C96.376466,18.4724263 97.0462944,18.4724263 97.7163393,18.4724263 C97.903389,17.6140922 98.0908716,16.7523896 98.2768388,15.8991083 C98.4625896,15.045827 98.6483403,14.1940194 98.8332251,13.3441065 C98.9999244,12.5775639 99.2172831,11.9272343 99.4777238,11.3901702 C99.737515,10.8550009 100.049697,10.4444658 100.40691,10.1591966 C100.760659,9.87666427 101.164635,9.73518758 101.61862,9.73013484 C101.800907,9.73013484 101.979946,9.7667672 102.143182,9.83203174 C102.312046,9.8939278 102.476364,9.97898224 102.637218,10.0791949 C102.891814,8.88169572 103.145759,7.6894598 103.399056,6.49869761 C103.294057,6.45701251 103.181481,6.42543289 103.055049,6.41195892 C102.933813,6.39869548 102.816258,6.39174796 102.702382,6.39174796 C102.42289,6.39174796 102.163316,6.44185429 101.924308,6.5437512 C101.679238,6.64733235 101.443694,6.80249355 101.217243,7.0113401 C100.989925,7.22334462 100.756113,7.49071873 100.514507,7.81472563 C100.272468,8.14020624 100.017657,8.52442495 99.7390305,8.96864494 C99.7288553,8.96864494 99.723443,8.96864494 99.7182472,8.96864494 C99.8838641,8.20883928 100.048615,7.45219159 100.213582,6.69575443 C99.576661,6.69575443 98.939523,6.69575443 98.3075808,6.69575443 C97.8806572,8.62969035 97.4502698,10.5768897 97.0187998,12.5306155 C96.5840825,14.4994996 96.1463343,16.4801733 95.7064211,18.4724263 Z M107.818538,13.6529552 C107.737786,14.0502268 107.623045,14.4079187 107.47518,14.7199253 C107.331862,15.0374057 107.159967,15.3144643 106.970752,15.548364 C106.780455,15.783948 106.576086,15.9776363 106.361542,16.1344817 C106.149596,16.2898535 105.932886,16.4050138 105.711631,16.4835418 C105.490375,16.5603855 105.282975,16.5989127 105.07774,16.5989127 C104.825093,16.5989127 104.618343,16.5302796 104.455973,16.4016453 C104.293604,16.2732215 104.185141,16.0860597 104.131667,15.8405807 C104.07841,15.5934176 104.083822,15.2894111 104.158079,14.9338246 C104.231254,14.5830803 104.334737,14.3020217 104.455757,14.0870697 C104.575477,13.8744336 104.727672,13.7112722 104.907577,13.6011646 C105.086833,13.494215 105.295748,13.422424 105.53822,13.3889496 C105.933536,13.3238956 106.334697,13.2571573 106.735425,13.190419 C106.940443,13.1603131 107.149142,13.1118911 107.362171,13.0434685 C107.575416,12.9731513 107.792559,12.8563067 108.015979,12.6845135 C107.949949,13.0083099 107.884351,13.3306326 107.818538,13.6529552 Z M105.318697,10.2528828 C105.469376,9.85540066 105.619621,9.53476226 105.761424,9.30254678 C105.903876,9.06717335 106.049143,8.89348544 106.19809,8.77664085 C106.345954,8.66463846 106.506808,8.59116322 106.67524,8.55600457 C106.842805,8.52442495 107.032886,8.50926673 107.245049,8.51263523 C107.624344,8.51263523 107.920289,8.5644258 108.128122,8.66632271 C108.330976,8.76485112 108.465418,8.9219071 108.521922,9.12885888 C108.584489,9.33096844 108.577994,9.59307929 108.514562,9.90382275 C108.451562,10.2143557 108.375573,10.4490975 108.290925,10.6185748 C108.208008,10.7846836 108.096947,10.9057388 107.961206,10.9825826 C107.831527,11.0560578 107.660498,11.1011114 107.451583,11.1278488 C106.727848,11.224693 106.004112,11.3181687 105.280161,11.4116443 C105.028813,11.4417502 104.777465,11.4922776 104.521354,11.5720688 C104.263944,11.6524916 104.009132,11.7741784 103.762114,11.9312343 C103.515096,12.0863955 103.281284,12.3034528 103.057647,12.5708269 C102.838989,12.8379905 102.637435,13.1718923 102.45688,13.57948 C102.276974,13.9834886 102.120667,14.4746569 101.999214,15.0441427 C101.852649,15.7369996 101.795278,16.3281701 101.82234,16.8208121 C101.849834,17.3119805 101.949204,17.7128311 102.126512,18.0214693 C102.303603,18.3305285 102.540662,18.5593755 102.842453,18.7046417 C103.144461,18.849908 103.49388,18.9200147 103.895041,18.9200147 C104.127121,18.9200147 104.375438,18.8949616 104.645404,18.840013 C104.920134,18.7865382 105.197894,18.6945362 105.48886,18.5625334 C105.774197,18.4324254 106.058236,18.2570532 106.341192,18.033259 C106.618735,17.8094648 106.875063,17.53388 107.116885,17.1999781 C107.084411,17.4102984 107.054535,17.6223029 107.034834,17.8362022 C107.015566,18.0479962 107.00669,18.2604217 106.995,18.4724263 C107.664828,18.4724263 108.334873,18.4724263 109.015309,18.4724263 C108.995825,18.1751568 109.012495,17.8296757 109.049299,17.4353515 C109.091515,17.0412379 109.162308,16.5820702 109.261245,16.064375 C109.458686,15.0807751 109.655262,14.1020174 109.851404,13.1236808 C110.046897,12.1499758 110.241957,11.1796394 110.436367,10.2109872 C110.529676,9.77181993 110.58185,9.35602161 110.603716,8.96190795 C110.620819,8.5677943 110.59484,8.20547079 110.510624,7.87641115 C110.431171,7.54903576 110.281575,7.263556 110.075258,7.02649832 C109.859847,6.78607215 109.571912,6.5963839 109.200194,6.46353896 C108.828909,6.33090456 108.361068,6.2614294 107.796888,6.2614294 C107.471933,6.25658719 107.145462,6.2833246 106.819424,6.33511518 C106.482778,6.38522151 106.161503,6.48690788 105.840877,6.63406891 C105.519169,6.78607215 105.214131,7.0031294 104.913855,7.29871464 C104.618776,7.59093139 104.340366,7.97662381 104.082956,8.4591604 C103.830742,8.93853903 103.600394,9.53813075 103.40187,10.2528828 C104.037276,10.2528828 104.677878,10.2528828 105.318697,10.2528828 Z" id="Fill-3" fill="#FFFFFE"></path>
                <path d="M24.6626855,6.42846617 C25.8004741,6.42846617 26.9382628,6.43140148 28.0791001,6.42846617 C28.2456854,6.42804684 28.4000763,6.45215832 28.5488054,6.51359019 C28.6957925,6.57418339 28.8155597,6.68006424 28.9087604,6.82578146 C29.0032676,6.97380499 29.0485614,7.17655111 29.0522633,7.43527779 C29.0559652,7.69253682 28.9971704,8.02066264 28.8719592,8.41378462 C28.753063,8.78698843 28.6091245,9.10358267 28.4510318,9.36419634 C28.2929391,9.62460034 28.1228696,9.83342674 27.9469206,9.99361085 C27.7705362,10.1540046 27.5961115,10.2693204 27.4229935,10.3410259 C27.2494399,10.412941 27.0885163,10.4462777 26.9352142,10.4462777 C25.7486476,10.4462777 24.5622988,10.4462777 23.3757322,10.4462777 C23.8053699,9.10693731 24.2341366,7.76591959 24.6626855,6.42846617 Z M21.4141627,8.20223258 L0,8.20223258 L0,10.1366024 L20.7928974,10.1366024 L20.4477501,11.2107165 L0,11.2008623 L0,13.1450864 L19.8264848,13.1450864 L19.4815552,14.2196198 L0,14.2196198 L0,16.1535703 L18.8602899,16.1535703 L18.446113,17.4430104 L0.00696827512,17.4430104 L0.00413741335,19.3761223 L17.8250655,19.3769609 L20.5167795,19.3769609 L22.5251671,13.492082 C23.5961039,13.4922917 24.6676939,13.494598 25.7416793,13.492082 C25.9524696,13.4916627 26.1297251,13.5310797 26.278672,13.6174617 C26.4236993,13.7013278 26.5297477,13.844529 26.5911556,14.0531457 C26.651257,14.2584078 26.6588785,14.5458586 26.6118427,14.9131918 C26.5650246,15.275493 26.4552743,15.7399011 26.2775832,16.2976102 C26.144315,16.7167307 26.0310805,17.0754676 25.9380976,17.3830462 C25.8453324,17.6899959 25.7715123,17.9613024 25.7159838,18.1896277 C25.6593666,18.4221463 25.6179924,18.6324403 25.5942568,18.8192519 C25.5700856,19.0098374 25.5563668,19.1949717 25.5607219,19.3769609 C26.5406356,19.3769609 27.5235979,19.3769609 28.506778,19.3769609 C28.457129,19.1683442 28.4449346,18.9094078 28.4732432,18.6022485 C28.5019873,18.2948796 28.5555559,17.9675924 28.6291583,17.6268867 C28.702543,17.2863906 28.785509,16.9601518 28.8723947,16.6515248 C28.9577561,16.3489781 29.0320117,16.0969607 29.0975571,15.8935856 C29.2003391,15.5742657 29.3002903,15.2362857 29.3967574,14.8714685 C29.4932244,14.5081189 29.5663913,14.1502207 29.6264927,13.7929514 C29.6874651,13.4321178 29.715556,13.0964441 29.7127251,12.7907524 C29.7094587,12.4852704 29.6582855,12.2284307 29.563125,12.0193947 C29.4686177,11.8109876 29.3155334,11.6751246 29.1006057,11.6118058 C29.1053964,11.5967099 29.1104048,11.5818237 29.1151955,11.5667278 C29.7754396,11.241118 30.3352969,10.7641299 30.7962919,10.1273772 C31.2551093,9.49335002 31.6348803,8.68865552 31.9412666,7.72251892 C32.046444,7.39124813 32.1392092,7.03481753 32.2132471,6.64882415 C32.2877205,6.26010513 32.3186422,5.87893405 32.3103674,5.49503733 C32.3020926,5.11260826 32.2328454,4.7679189 32.0930443,4.44776035 C31.9565097,4.13514975 31.7254678,3.88292268 31.4086291,3.69296614 C31.0933146,3.50384825 30.6667255,3.40006405 30.1221113,3.39901572 C27.7306864,3.39503209 25.3420923,3.39901572 22.9567646,3.39901572 L21.4141627,8.20223258 Z M37.2132022,15.7816245 C36.8752409,16.2976102 36.4941634,16.6921998 36.0684453,16.9557488 C35.6440338,17.2182495 35.1839099,17.3566284 34.6913399,17.3530641 C34.2758565,17.3499191 33.9494364,17.2490702 33.7068533,17.060791 C33.465359,16.8733505 33.2920232,16.6303487 33.1925075,16.3359789 C33.091032,16.0361579 33.0483513,15.7250149 33.0607635,15.3924861 C33.0733935,15.0586994 33.1265266,14.7477661 33.2186385,14.4557027 C33.2232115,14.4408164 33.2280022,14.4257205 33.2327928,14.4106247 C35.618556,14.4106247 38.0043192,14.4106247 40.3898647,14.4106247 C40.4273191,14.2919542 40.4647736,14.1734935 40.5024459,14.0531457 C40.9765063,12.5404123 41.2042818,11.2543269 41.1899098,10.190696 C41.1755377,9.1304198 40.9039927,8.321532 40.3746216,7.76424227 C39.8441616,7.20590421 39.0476007,6.92327571 37.9794947,6.91929208 C37.2428174,6.9167761 36.5366263,7.04236547 35.8583082,7.29018957 C35.1830388,7.53654601 34.5436996,7.92170073 33.9500897,8.43894443 C33.3519068,8.96017177 32.8092524,9.62732599 32.3171179,10.4429231 C31.8269433,11.2555848 31.3983944,12.2273824 31.039746,13.3585254 C30.6824041,14.4848461 30.494043,15.4627239 30.4685652,16.2793693 C30.4430874,17.0974824 30.5659033,17.7682009 30.8328753,18.2898476 C31.1013717,18.8150586 31.4959503,19.2035679 32.0161756,19.4522307 C32.540756,19.7025708 33.1702961,19.8245958 33.9115464,19.8260635 C34.6582406,19.8279505 35.3816347,19.6897812 36.0812931,19.4105073 C36.7792094,19.1318625 37.4438086,18.6965978 38.0726954,18.0994717 C38.7044131,17.4994103 39.2875706,16.7284719 39.8228213,15.7816245 C38.9506981,15.7816245 38.0818413,15.7816245 37.2132022,15.7816245 Z M33.9690347,12.0827135 C33.9736076,12.0676176 33.9792693,12.0527314 33.983189,12.0376355 C34.0006097,11.9745263 34.0609288,11.8443243 34.1621865,11.6501745 C34.2662751,11.450154 34.4052051,11.2260221 34.5822429,10.9723273 C34.7594984,10.718423 34.9798701,10.4701795 35.2305102,10.2290647 C35.4835457,9.98606291 35.7685917,9.78562311 36.0910922,9.62460034 C36.4109796,9.46504523 36.7635307,9.37426026 37.149399,9.37426026 C37.5017324,9.37426026 37.7913513,9.44659471 38.0088922,9.58623164 C38.2257797,9.72544924 38.385179,9.90345487 38.4940583,10.1238129 C38.6031554,10.3443805 38.6710961,10.5748024 38.6987514,10.8169655 C38.72706,11.0641606 38.7301086,11.2945825 38.7092038,11.5115859 C38.688299,11.7269119 38.6549819,11.9024016 38.6096881,12.0376355 C38.6046797,12.0525217 38.6001068,12.0676176 38.5953161,12.0827135 C37.0511898,12.0827135 35.5098945,12.0827135 33.9690347,12.0827135 Z M44.1242069,13.4254085 C44.3021156,12.8540713 44.5227051,12.3500365 44.779878,11.9174974 C45.0370509,11.4851681 45.317524,11.1230765 45.6193374,10.8318518 C45.9218041,10.5404173 46.2329811,10.3236237 46.5563526,10.1756001 C46.8788531,10.0282056 47.1946031,9.95524214 47.5044736,9.95524214 C47.8110777,9.95524214 48.0810983,10.0277863 48.3093093,10.1756001 C48.5370848,10.3232043 48.7097674,10.541256 48.8314945,10.8318518 C48.9543103,11.1239152 49.0078789,11.4851681 48.9956844,11.9174974 C48.98349,12.3500365 48.8894182,12.8540713 48.7121627,13.4254085 C48.5344717,13.9980038 48.3149711,14.500571 48.059758,14.9316423 C47.8025851,15.365649 47.5236363,15.7300469 47.2185565,16.0237876 C46.915001,16.3160607 46.6060016,16.5343221 46.2861142,16.6817166 C45.9653558,16.8297401 45.6491703,16.9037519 45.3419129,16.9037519 C45.0311714,16.9037519 44.7615863,16.8301595 44.5290201,16.6817166 C44.2984137,16.5347414 44.1200694,16.3166897 44.0000845,16.0237876 C43.8798817,15.7306759 43.8267486,15.3658587 43.8389431,14.9316423 C43.8515731,14.5007806 43.945427,13.9980038 44.1242069,13.4254085 Z M46.8646988,19.3769609 C47.6527672,19.3769609 48.441271,19.3769609 49.2326058,19.3769609 C50.074896,16.6567664 50.915662,13.9413943 51.7538148,11.2327314 C52.5906611,8.52763275 53.4266364,5.82714678 54.2608696,3.13043478 C53.4460169,3.13043478 52.6344306,3.13043478 51.8258929,3.13043478 C51.5310478,4.08210449 51.2351139,5.03398386 50.9407042,5.98250859 C50.6458591,6.93250098 50.3497074,7.88794465 50.0546445,8.8381467 C50.0450631,8.8381467 50.0356995,8.8381467 50.0265536,8.8381467 C49.9816954,8.47731314 49.8643235,8.1642832 49.6742202,7.89800858 C49.4854235,7.63341127 49.2304282,7.42353655 48.9040081,7.276771 C48.5782412,7.1297958 48.1878,7.05284872 47.7292004,7.05284872 C47.1405989,7.05284872 46.5482956,7.20946852 45.9546856,7.51054755 C45.3597691,7.8120459 44.7879351,8.24835889 44.2380946,8.80963226 C43.6843345,9.37530859 43.1824009,10.0537847 42.7270677,10.840448 C42.2699924,11.6300466 41.8819466,12.5142042 41.5773023,13.492082 C41.2502289,14.541246 41.0727556,15.4593693 41.0366077,16.2525322 C41.0006775,17.0423405 41.0888698,17.7019468 41.3018377,18.233238 C41.5137168,18.762223 41.8294668,19.1603769 42.2482165,19.4253936 C42.6684906,19.6912489 43.1688999,19.8241765 43.7500976,19.8260635 C44.1229003,19.8273215 44.4972273,19.7780502 44.8837488,19.6658794 C45.2674395,19.5543376 45.6633246,19.3518011 46.0659603,19.066447 C46.4685959,18.7808832 46.8810307,18.3833582 47.3043534,17.8690498 C47.313717,17.8690498 47.3230806,17.8690498 47.3324443,17.8690498 C47.1763114,18.3732943 47.0203962,18.8760711 46.8646988,19.3769609 Z" id="Fill-4" fill="#FFFFFE"></path>
            </g>
        </g>
    </g>
</svg>