<?xml version="1.0" encoding="utf-8"?>
<!-- Generator: Adobe Illustrator 21.1.0, SVG Export Plug-In . SVG Version: 6.00 Build 0)  -->
<svg version="1.1" id="Layer_1" xmlns="http://www.w3.org/2000/svg" xmlns:xlink="http://www.w3.org/1999/xlink" x="0px" y="0px"
	 viewBox="0 0 40.9 25.9" style="enable-background:new 0 0 40.9 25.9;" xml:space="preserve">
<style type="text/css">
	.st0{fill:#4E95CB;}
	.st1{fill:#DEDEDE;}
	.st2{fill:#FFFFFF;}
</style>
<g>
	<path class="st0" d="M37,24.8H3.8c-1.5,0-2.6-1.2-2.6-2.6V3.7c0-1.5,1.2-2.6,2.6-2.6H37c1.5,0,2.6,1.2,2.6,2.6v18.4
		C39.6,23.6,38.4,24.8,37,24.8z"/>
	<g>
		<path class="st1" d="M37.5,25.3H3.3c-1.4,0-2.5-1.1-2.5-2.5V3.1c0-1.4,1.1-2.5,2.5-2.5h34.2c1.4,0,2.5,1.1,2.5,2.5v19.6
			C40.1,24.2,38.9,25.3,37.5,25.3z M3.3,1.4c-0.9,0-1.7,0.8-1.7,1.7v19.6c0,0.9,0.8,1.7,1.7,1.7h34.2c0.9,0,1.7-0.8,1.7-1.7V3.1
			c0-0.9-0.8-1.7-1.7-1.7H3.3z"/>
	</g>
	<g>
		<path class="st2" d="M8.7,10.3L8.2,9l-0.5,1.2 M19.9,9.8c-0.1,0.1-0.2,0.1-0.4,0.1h-0.9V9.2h0.9c0.1,0,0.3,0,0.4,0.1
			c0.1,0,0.2,0.1,0.2,0.3C20.1,9.6,20,9.7,19.9,9.8z M26.4,10.3L25.9,9l-0.5,1.2H26.4z M14.4,11.6h-0.8l0-2.4l-1.1,2.4h-0.7
			l-1.1-2.4v2.4H9.3L9,10.9H7.4l-0.3,0.7H6.3l1.3-3.1h1.1l1.3,2.9V8.5h1.2l1,2.1l0.9-2.1h1.2L14.4,11.6L14.4,11.6z M17.4,11.6h-2.5
			V8.5h2.5v0.6h-1.7v0.6h1.7v0.6h-1.7V11h1.7V11.6z M20.9,9.4c0,0.5-0.3,0.8-0.5,0.8c0.2,0.1,0.3,0.2,0.4,0.3
			c0.1,0.2,0.1,0.3,0.1,0.6v0.6h-0.8l0-0.4c0-0.2,0-0.5-0.1-0.6c-0.1-0.1-0.3-0.1-0.5-0.1h-0.8v1.1h-0.7V8.5h1.7
			c0.4,0,0.7,0,0.9,0.1C20.8,8.8,20.9,9,20.9,9.4z M22.1,11.6h-0.8V8.5h0.8V11.6z M30.9,11.6h-1.1l-1.4-2.3v2.3h-1.5l-0.3-0.7h-1.5
			l-0.3,0.7H24c-0.4,0-0.8-0.1-1.1-0.3c-0.3-0.3-0.4-0.6-0.4-1.2c0-0.5,0.1-0.9,0.4-1.2c0.2-0.2,0.6-0.4,1.1-0.4h0.7v0.7H24
			c-0.3,0-0.4,0-0.6,0.2c-0.1,0.1-0.2,0.4-0.2,0.7c0,0.3,0.1,0.6,0.2,0.7c0.1,0.1,0.3,0.2,0.5,0.2h0.3l1-2.4h1.1l1.3,2.9V8.5h1.1
			l1.3,2.2V8.5h0.8V11.6L30.9,11.6z M6.3,12.2h1.3l0.3-0.7h0.6l0.3,0.7h2.5v-0.5l0.2,0.5h1.3l0.2-0.5v0.5h6.2l0-1.1h0.1
			c0.1,0,0.1,0,0.1,0.1v1h3.2V12c0.3,0.1,0.7,0.3,1.2,0.3h1.4l0.3-0.7h0.6l0.3,0.7h2.6v-0.7l0.4,0.7h2.1V7.9h-2.1v0.5l-0.3-0.5h-2.1
			v0.5l-0.3-0.5H24c-0.5,0-0.9,0.1-1.2,0.3V7.9h-2v0.3c-0.2-0.2-0.5-0.3-0.8-0.3h-7.2L12.2,9l-0.5-1.1H9.4v0.5L9.2,7.9H7.2L6.3,10
			L6.3,12.2L6.3,12.2z"/>
		<path class="st2" d="M32.8,14.5h-1.4c-0.1,0-0.2,0-0.3,0.1c-0.1,0.1-0.1,0.1-0.1,0.2c0,0.1,0.1,0.2,0.2,0.2c0.1,0,0.2,0,0.3,0
			l0.4,0c0.4,0,0.7,0.1,0.8,0.3c0,0,0,0.1,0.1,0.1 M32.8,16.6c-0.2,0.3-0.5,0.4-1,0.4h-1.4v-0.7h1.4c0.1,0,0.2,0,0.3-0.1
			c0.1,0,0.1-0.1,0.1-0.2c0-0.1,0-0.2-0.1-0.2c-0.1,0-0.1-0.1-0.3-0.1c-0.7,0-1.6,0-1.6-1c0-0.5,0.3-0.9,1.1-0.9h1.5v-0.6h-1.4
			c-0.4,0-0.7,0.1-0.9,0.3v-0.3h-2c-0.3,0-0.7,0.1-0.9,0.3v-0.3h-3.6v0.3c-0.3-0.2-0.8-0.3-1-0.3h-2.4v0.3c-0.2-0.2-0.7-0.3-1-0.3
			h-2.7l-0.6,0.7l-0.6-0.7h-4v4.3h3.9l0.6-0.7l0.6,0.7l2.4,0v-1h0.2c0.3,0,0.7,0,1-0.2v1.2h2v-1.1h0.1c0.1,0,0.1,0,0.1,0.1v1h6.1
			c0.4,0,0.8-0.1,1-0.3v0.3h1.9c0.4,0,0.8-0.1,1.1-0.2V16.6L32.8,16.6z M29.9,15.3c0.1,0.1,0.2,0.3,0.2,0.7c0,0.7-0.4,1-1.2,1h-1.5
			v-0.7h1.4c0.1,0,0.2,0,0.3-0.1c0.1,0,0.1-0.1,0.1-0.2c0-0.1,0-0.2-0.1-0.2c-0.1,0-0.1-0.1-0.3-0.1c-0.7,0-1.6,0-1.6-1
			c0-0.5,0.3-0.9,1.1-0.9h1.5v0.7h-1.4c-0.1,0-0.2,0-0.3,0.1c-0.1,0.1-0.1,0.1-0.1,0.2c0,0.1,0.1,0.2,0.2,0.2c0.1,0,0.2,0,0.3,0
			l0.4,0C29.4,15.1,29.7,15.2,29.9,15.3z M23.1,15.2c-0.1,0.1-0.2,0.1-0.4,0.1h-0.9v-0.7h0.9c0.1,0,0.3,0,0.4,0.1
			c0.1,0.1,0.2,0.1,0.2,0.3C23.3,15,23.2,15.1,23.1,15.2z M23.6,15.5c0.2,0.1,0.3,0.2,0.4,0.3c0.1,0.2,0.1,0.3,0.1,0.6V17h-0.7v-0.4
			c0-0.2,0-0.5-0.1-0.6c-0.1-0.1-0.3-0.1-0.5-0.1h-0.8V17h-0.7v-3.1h1.7c0.4,0,0.7,0,0.9,0.1c0.2,0.1,0.4,0.3,0.4,0.7
			C24.1,15.2,23.8,15.5,23.6,15.5z M24.5,13.9H27v0.6h-1.7v0.6H27v0.6h-1.7v0.6l1.7,0V17h-2.5V13.9z M19.5,15.3h-1v-0.8h1
			c0.3,0,0.5,0.1,0.5,0.4C20,15.2,19.8,15.3,19.5,15.3z M17.8,16.7l-1.1-1.3l1.1-1.2V16.7z M14.8,16.3H13v-0.6h1.6v-0.6H13v-0.6h1.9
			l0.8,0.9L14.8,16.3z M20.8,14.9c0,0.9-0.6,1-1.3,1h-0.9v1h-1.4l-0.9-1l-1,1h-2.9v-3.1h3l0.9,1l0.9-1h2.4
			C20.1,13.9,20.8,14,20.8,14.9z"/>
	</g>
</g>
</svg>
