<?xml version="1.0" encoding="UTF-8"?>
<svg width="37px" height="25px" viewBox="0 0 37 25" version="1.1" xmlns="http://www.w3.org/2000/svg" xmlns:xlink="http://www.w3.org/1999/xlink">
    <!-- Generator: Sketch 56.3 (81716) - https://sketch.com -->
    <title>Group 3</title>
    <desc>Created with Sketch.</desc>
    <g id="Page-1" stroke="none" stroke-width="1" fill="none" fill-rule="evenodd">
        <g id="Multishipping-V1-UI-Desktop-00" transform="translate(-1124.000000, -20.000000)" fill-rule="nonzero">
            <g id="Group-3" transform="translate(1124.000000, 20.000000)">
                <g id="mastercard" transform="translate(6.000000, 2.000000)">
                    <g id="Grupo_472" transform="translate(0.212000, 0.317000)">
                        <g id="Grupo_469" transform="translate(2.174000, 15.086000)" fill="#4D4D4D">
                            <path d="M2.543,0.885 C2.443,0.785 2.443,0.785 2.343,0.785 C2.243,0.785 2.143,0.685 2.05,0.685 L1.659,0.685 C1.559,0.685 1.559,0.785 1.459,0.785 C1.359,0.785 1.359,0.885 1.359,0.985 C1.259,0.885 1.259,0.785 1.159,0.785 C1.059,0.685 0.959,0.685 0.768,0.685 L0.568,0.685 C0.512771525,0.685 0.468,0.729771525 0.468,0.785 L0.368,0.885 L0.368,0.685 L0,0.685 L0,2.446 L0.391,2.446 L0.391,1.272 C0.391,1.21677153 0.435771525,1.172 0.491,1.172 L0.591,1.072 L0.791,1.072 C0.89864879,1.05679137 1.00718608,1.0930637 1.08406119,1.16993881 C1.1609363,1.24681392 1.19720863,1.35535121 1.182,1.463 L1.182,2.441 L1.573,2.441 L1.573,1.272 C1.573,1.21677153 1.61777153,1.172 1.673,1.172 L1.773,1.072 L1.973,1.072 C2.08064879,1.05679137 2.18918608,1.0930637 2.26606119,1.16993881 C2.3429363,1.24681392 2.37920863,1.35535121 2.364,1.463 L2.364,2.441 L2.755,2.441 L2.755,1.37 C2.76765609,1.26223998 2.73089739,1.15453699 2.655,1.077 C2.64362827,1.00102001 2.60354054,0.932298186 2.543,0.885 Z" id="Trazado_258"></path>
                            <path d="M4.499,0.978 L4.299,0.778 C4.199,0.778 4.099,0.678 4.006,0.678 C3.86891284,0.67440928 3.73353044,0.709033933 3.615,0.778 C3.515,0.778 3.415,0.878 3.322,0.978 C3.229,1.078 3.222,1.178 3.122,1.271 C3.122,1.371 3.022,1.471 3.022,1.662 C3.00816027,1.80004942 3.0435814,1.93854606 3.122,2.053 C3.122,2.153 3.222,2.253 3.322,2.346 C3.422,2.439 3.522,2.446 3.615,2.546 C3.715,2.546 3.815,2.646 4.006,2.646 C4.11376002,2.65865609 4.22146301,2.62189739 4.299,2.546 C4.40729836,2.5409548 4.4939548,2.45429836 4.499,2.346 L4.499,2.546 L4.89,2.546 L4.89,0.785 L4.499,0.785 L4.499,0.978 Z M4.499,1.858 C4.499,1.958 4.399,1.958 4.399,2.058 C4.399,2.158 4.299,2.158 4.199,2.158 L3.808,2.158 C3.708,2.158 3.708,2.058 3.608,2.058 C3.608,1.958 3.508,1.958 3.508,1.858 L3.508,1.467 C3.508,1.367 3.608,1.367 3.608,1.267 C3.608,1.167 3.708,1.167 3.808,1.167 L4.199,1.167 C4.299,1.167 4.299,1.267 4.399,1.267 C4.399,1.367 4.499,1.367 4.499,1.467 L4.499,1.858 L4.499,1.858 Z" id="Trazado_259"></path>
                            <path d="M6.651,1.663 C6.551,1.563 6.358,1.563 6.162,1.463 L5.771,1.463 L5.671,1.363 L5.671,1.263 C5.671,1.163 5.671,1.163 5.771,1.063 C5.871,1.063 5.871,0.963 6.064,0.963 L6.553,0.963 C6.57952165,0.963 6.60495704,0.973535684 6.62371068,0.992289322 C6.64246432,1.01104296 6.653,1.03647835 6.653,1.063 L6.853,0.77 C6.77546301,0.69410261 6.66776002,0.657343908 6.56,0.67 L5.875,0.67 C5.79901172,0.679982038 5.7285786,0.715198599 5.675,0.77 C5.575,0.77 5.575,0.87 5.575,0.97 C5.56501796,1.04598828 5.5298014,1.1164214 5.475,1.17 C5.50068411,1.31752899 5.57040553,1.45383436 5.675,1.561 C5.775,1.661 5.968,1.661 6.164,1.761 L6.364,1.761 C6.464,1.761 6.564,1.761 6.564,1.861 L6.664,1.961 C6.664,2.061 6.664,2.061 6.564,2.161 C6.464,2.161 6.364,2.261 6.271,2.261 L5.88,2.261 C5.813334,2.19433267 5.74666733,2.127666 5.68,2.061 L5.282,2.348 C5.382,2.348 5.382,2.448 5.482,2.448 C5.582,2.448 5.582,2.548 5.682,2.548 L6.367,2.548 C6.467,2.548 6.567,2.448 6.66,2.448 L6.86,2.248 C6.86998204,2.17201172 6.9051986,2.1015786 6.96,2.048 C6.88153934,1.90176501 6.77678829,1.77124995 6.651,1.663 Z" id="Trazado_260"></path>
                            <path d="M10.271,0.978 C10.171,0.878 10.071,0.878 9.978,0.778 C9.878,0.778 9.778,0.678 9.685,0.678 C9.54695058,0.664160271 9.40845394,0.699581404 9.294,0.778 C9.194,0.778 9.094,0.878 9.001,0.978 C8.908,1.078 8.901,1.178 8.801,1.271 C8.801,1.371 8.701,1.471 8.701,1.662 C8.68716027,1.80004942 8.7225814,1.93854606 8.801,2.053 C8.801,2.153 8.901,2.253 9.001,2.346 C9.101,2.439 9.201,2.446 9.294,2.546 C9.394,2.546 9.494,2.646 9.685,2.646 C9.82304942,2.65983973 9.96154606,2.6244186 10.076,2.546 C10.176,2.546 10.276,2.446 10.369,2.346 L10.169,2.053 C10.1154214,2.1078014 10.0449883,2.14301796 9.969,2.153 L9.48,2.153 C9.38,2.153 9.38,2.153 9.28,2.053 L9.18,1.953 C9.18,1.853 9.08,1.853 9.08,1.753 L10.352,1.753 L10.352,1.553 C10.3658397,1.41495058 10.3304186,1.27645394 10.252,1.162 C10.369,1.174 10.369,1.076 10.271,0.978 Z M9.195,1.467 C9.195,1.367 9.195,1.367 9.295,1.267 C9.295,1.21177153 9.33977153,1.167 9.395,1.167 L9.495,1.067 L9.695,1.067 C9.80264879,1.05179137 9.91118608,1.0880637 9.98806119,1.16493881 C10.0649363,1.24181392 10.1012086,1.35035121 10.086,1.458 L9.206,1.458 L9.195,1.467 Z" id="Trazado_261"></path>
                            <path d="M15.357,0.978 L15.157,0.778 C15.057,0.778 14.957,0.678 14.864,0.678 C14.7269128,0.67440928 14.5915304,0.709033933 14.473,0.778 C14.373,0.778 14.273,0.878 14.18,0.978 C14.087,1.078 14.08,1.178 13.98,1.271 C13.98,1.371 13.88,1.471 13.88,1.662 C13.8661603,1.80004942 13.9015814,1.93854606 13.98,2.053 C13.98,2.153 14.08,2.253 14.18,2.346 C14.28,2.439 14.38,2.446 14.473,2.546 C14.573,2.546 14.673,2.646 14.864,2.646 C14.97176,2.65865609 15.079463,2.62189739 15.157,2.546 C15.257,2.446 15.357,2.446 15.357,2.346 L15.357,2.546 L15.748,2.546 L15.748,0.785 L15.357,0.785 L15.357,0.978 Z M15.357,1.858 C15.357,1.958 15.257,1.958 15.257,2.058 C15.257,2.158 15.157,2.158 15.057,2.158 L14.666,2.158 C14.566,2.158 14.566,2.058 14.466,2.058 C14.366,2.058 14.366,1.958 14.366,1.858 L14.366,1.467 C14.366,1.367 14.466,1.367 14.466,1.267 C14.466,1.167 14.566,1.167 14.666,1.167 L15.057,1.167 C15.157,1.167 15.157,1.267 15.257,1.267 C15.257,1.367 15.357,1.367 15.357,1.467 L15.357,1.858 L15.357,1.858 Z" id="Trazado_262"></path>
                            <path d="M8.315,2.152 L8.022,2.152 C7.99547835,2.152 7.97004296,2.14146432 7.95128932,2.12271068 C7.93253568,2.10395704 7.922,2.07852165 7.922,2.052 C7.922,1.99677153 7.87722847,1.952 7.822,1.952 L7.822,0.974 L8.409,0.974 L8.409,0.583 L7.822,0.583 L7.822,0.196 L7.431,0.196 L7.431,0.685 L7.043,0.685 L7.043,1.076 L7.434,1.076 L7.434,1.859 C7.42956848,2.04199586 7.50031393,2.21881496 7.62974949,2.34825051 C7.75918504,2.47768607 7.93600414,2.54843152 8.119,2.544 C8.22676002,2.55665609 8.33446301,2.51989739 8.412,2.444 C8.512,2.444 8.512,2.444 8.612,2.344 L8.412,2.144 L8.315,2.152 Z" id="Trazado_263"></path>
                            <path d="M11.738,0.685 C11.63024,0.672343908 11.522537,0.70910261 11.445,0.785 C11.3367016,0.790045203 11.2500452,0.876701645 11.245,0.985 L11.245,0.785 L10.858,0.785 L10.858,2.546 L11.249,2.546 L11.249,1.37 C11.249,1.27 11.349,1.27 11.349,1.17 L11.449,1.07 L11.938,1.07 L12.038,0.679 L11.738,0.679 L11.738,0.685 Z" id="Trazado_264"></path>
                            <path d="M17.118,0.685 C17.01024,0.672343908 16.902537,0.70910261 16.825,0.785 C16.7167016,0.790045203 16.6300452,0.876701645 16.625,0.985 L16.625,0.785 L16.238,0.785 L16.238,2.546 L16.629,2.546 L16.629,1.37 C16.629,1.27 16.729,1.27 16.729,1.17 L16.829,1.07 L17.318,1.07 L17.418,0.679 L17.118,0.679 L17.118,0.685 Z" id="Trazado_265"></path>
                            <path d="M18.878,0 L18.878,0.88 L18.678,0.68 C18.578,0.68 18.478,0.58 18.385,0.58 C18.2479128,0.57640928 18.1125304,0.611033933 17.994,0.68 C17.894,0.68 17.794,0.78 17.701,0.88 C17.608,0.98 17.601,1.08 17.501,1.173 C17.501,1.273 17.401,1.373 17.401,1.564 C17.3871603,1.70204942 17.4225814,1.84054606 17.501,1.955 C17.501,2.055 17.601,2.155 17.701,2.248 C17.801,2.341 17.901,2.348 17.994,2.448 C18.094,2.448 18.194,2.548 18.385,2.548 C18.49276,2.56065609 18.600463,2.52389739 18.678,2.448 C18.7862984,2.4429548 18.8729548,2.35629836 18.878,2.248 L18.878,2.448 L19.269,2.448 L19.269,0 L18.878,0 L18.878,0 Z M18.878,1.859 C18.878,1.959 18.778,1.959 18.778,2.059 C18.778,2.159 18.678,2.159 18.578,2.159 L18.187,2.159 C18.087,2.159 18.087,2.059 17.987,2.059 C17.987,1.959 17.887,1.959 17.887,1.859 L17.887,1.468 C17.887,1.368 17.987,1.368 17.987,1.268 C17.987,1.168 18.087,1.168 18.187,1.168 L18.578,1.168 C18.678,1.168 18.678,1.268 18.778,1.268 C18.778,1.368 18.878,1.368 18.878,1.468 L18.878,1.859 Z" id="Trazado_266"></path>
                            <path d="M12.716,1.272 C12.716,1.172 12.816,1.172 12.916,1.172 L13.307,1.172 C13.407,1.172 13.407,1.272 13.507,1.272 L13.707,0.979 C13.6557111,0.921138631 13.5840624,0.885314262 13.507,0.879 C13.407,0.879 13.307,0.779 13.116,0.779 C12.9779506,0.765160271 12.8394539,0.800581404 12.725,0.879 C12.625,0.879 12.525,0.979 12.432,1.079 C12.339,1.179 12.232,1.279 12.232,1.372 C12.232,1.465 12.132,1.572 12.132,1.763 C12.1181603,1.90104942 12.1535814,2.03954606 12.232,2.154 C12.232,2.254 12.332,2.354 12.432,2.447 C12.532,2.54 12.632,2.647 12.725,2.647 C12.818,2.647 12.925,2.747 13.116,2.747 C13.2540494,2.76083973 13.3925461,2.7254186 13.507,2.647 C13.5829883,2.63701796 13.6534214,2.6018014 13.707,2.547 L13.507,2.254 C13.407,2.254 13.407,2.354 13.307,2.354 L12.916,2.354 C12.816,2.354 12.816,2.254 12.716,2.254 C12.716,2.154 12.616,2.154 12.616,2.054 L12.616,1.663 C12.618,1.37 12.618,1.272 12.716,1.272 Z" id="Trazado_267"></path>
                        </g>
                        <g id="Grupo_470" transform="translate(21.933000, 16.335000)" fill="#FFFFFF">
                            <path d="M0.293,1 L0.293,1 C0.393,1 0.393,1 0.393,1.1 L0.393,1.491 L-5.55111512e-17,1.491 L-5.55111512e-17,1.1 C0.2,1 0.2,1 0.293,1 L0.293,1 Z M0.293,1.293 L0.293,1.293 L0.393,1.193 L0.393,0.993 L0.2,0.993 L0.2,1.193 C0.2,1.293 0.2,1.293 0.3,1.293 L0.293,1.293 Z M0.293,1.093 L0.293,1.093 L0.293,1.193 L0.393,1.293 L0.293,1.293 L0.293,1.193 L0.293,1.193 L0.293,1.293 L0.293,1.293 L0.293,1.093 L0.293,1.093 Z" id="Trazado_268"></path>
                        </g>
                        <g id="Grupo_471">
                            <path d="M9.217,7.652 C9.21358272,5.62256168 10.153218,3.70671086 11.76,2.467 C10.5895427,1.53902586 9.14550632,1.0233488 7.652,1 C5.23730039,0.940773654 2.98024239,2.19514358 1.75547112,4.27702189 C0.530699857,6.3589002 0.530699857,8.9410998 1.75547112,11.0229781 C2.98024239,13.1048564 5.23730039,14.3592263 7.652,14.3 C9.15348099,14.3226607 10.612516,13.8016275 11.76,12.833 C10.1892301,11.5659517 9.2584766,9.66967421 9.217,7.652 Z" id="Trazado_269" fill="#E9271C"></path>
                            <path d="M9.21699232,7.651 C9.21389343,9.68008713 10.1534968,11.5955035 11.76,12.835 C13.3641947,11.5933722 14.3032583,9.67906606 14.3032583,7.6505 C14.3032583,5.62193394 13.3641947,3.70762776 11.76,2.466 C10.1705499,3.71978777 9.235324,5.62664838 9.21699232,7.651 Z" id="Trazado_270" fill="#EF7704"></path>
                            <path d="M15.868,1 C14.366519,0.977339308 12.907484,1.49837251 11.76,2.467 C13.383303,3.6927027 14.3272975,5.61707043 14.303,7.651 C14.3276167,9.68528015 13.3835887,11.6100875 11.76,12.836 C12.9308452,13.7628975 14.3748451,14.277507 15.868,14.3 C19.4771695,14.2114764 22.3568927,11.260255 22.3568927,7.65 C22.3568927,4.03974504 19.4771695,1.08852361 15.868,1 L15.868,1 Z" id="Trazado_272" fill="#F7AC00"></path>
                        </g>
                    </g>
                </g>
                <path d="M33.8247842,24.161 L2.30178416,24.161 C1.67070422,24.1467353 1.07176911,23.8797159 0.639349885,23.4198474 C0.206930663,22.959979 -0.0227689453,22.3457634 0.00178415827,21.715 L0.00178415827,2.445 C-0.0224942084,1.81440615 0.207328152,1.20045062 0.63971782,0.740801604 C1.07210749,0.281152588 1.6708845,0.0142709609 2.30178416,5.32907052e-15 L33.8247842,5.32907052e-15 C34.4556838,0.0142709609 35.0544608,0.281152588 35.4868505,0.740801604 C35.9192402,1.20045062 36.1490625,1.81440615 36.1247842,2.445 L36.1247842,21.618 C36.1846773,22.2668302 35.9700293,22.9110805 35.5329543,23.3943334 C35.0958793,23.8775863 34.4763509,24.1556451 33.8247842,24.161 Z M2.30178416,0.783 C1.42389751,0.837875584 0.739709001,1.56540041 0.738784158,2.445 L0.738784158,21.618 C0.739709001,22.4975996 1.42389751,23.2251244 2.30178416,23.28 L33.8247842,23.28 C34.7046332,23.2271245 35.3912565,22.4984363 35.3917842,21.617 L35.3917842,2.445 C35.3912565,1.56356374 34.7046332,0.834875452 33.8247842,0.782 L2.30178416,0.782 L2.30178416,0.783 Z" id="Trazado_253" fill="#DEDEDE"></path>
            </g>
        </g>
    </g>
</svg>