<?xml version="1.0" encoding="utf-8"?>
<!-- Generator: Adobe Illustrator 21.1.0, SVG Export Plug-In . SVG Version: 6.00 Build 0)  -->
<svg version="1.1" id="Layer_1" xmlns="http://www.w3.org/2000/svg" xmlns:xlink="http://www.w3.org/1999/xlink" x="0px" y="0px"
	 viewBox="0 0 406 306" style="enable-background:new 0 0 406 306;" xml:space="preserve">
<style type="text/css">
	.st0{fill:#E0D1F1;}
	.st1{fill:#E6E6E6;}
	.st2{opacity:0.45;fill:#E6E6E6;enable-background:new    ;}
	.st3{fill:#F4A28C;}
	.st4{opacity:9.000000e-02;enable-background:new    ;}
	.st5{opacity:0.31;fill:#CE8172;enable-background:new    ;}
	.st6{fill:#683EA3;}
	.st7{fill:#FFD200;}
	.st8{fill:#24285B;}
	.st9{opacity:0.46;fill:#FFFFFF;enable-background:new    ;}
	.st10{opacity:8.000000e-02;enable-background:new    ;}
	.st11{opacity:0.5;fill:#E6E6E6;enable-background:new    ;}
</style>
<path class="st0" d="M180.6,86.7c-20.5,14.4-53,23.3-97.8,63.7s15.8,115.5,54.9,127.5s94.7,12,151.4,0c56.8-12,95.9-20.8,95.9-66.9
	s-26.5-42.9-39.8-80.1s-24.6-90.2-89.6-100.3S203.7,70.5,180.6,86.7z"/>
<title>_</title>
<polygon class="st1" points="356.1,102.2 311.2,167.7 309.3,152.9 177.6,239.9 174.1,197.2 74.9,256.2 63.1,226.8 200.1,154.7 
	204.1,193.4 305.6,123.9 304.1,111.9 "/>
<polygon class="st1" points="328.4,140.4 327.8,140.7 328.3,140 "/>
<ellipse class="st2" cx="189.1" cy="268.9" rx="139.3" ry="8.4"/>
<path class="st3" d="M289.8,147c2.2,3.1,1.5,7.3-1.5,9.5c-0.6,0.4-1.2,0.7-1.9,0.9c-4.8,1.6-12.4,2.8-22.8,0
	c-18.9-5.1-25.4-36.5-25.4-36.5s-3.6-5.3-0.9-7.5c2.7-2.3,4.8,6,4.8,6s3.9,15.1,18,20.6C271.5,144.5,284.4,139.5,289.8,147z"/>
<path class="st4" d="M289.8,147c2.2,3.1,1.5,7.3-1.5,9.5c-0.6,0.4-1.2,0.7-1.9,0.9c-4.8,1.6-12.4,2.8-22.8,0
	c-18.9-5.1-25.4-36.5-25.4-36.5s-3.6-5.3-0.9-7.5c2.7-2.3,4.8,6,4.8,6s3.9,15.1,18,20.6C271.5,144.5,284.4,139.5,289.8,147z"/>
<polygon class="st3" points="294.5,213.8 276.3,262.4 272.7,262.2 278.9,211.4 "/>
<path class="st3" d="M307.3,208.5l-4.3,20l14-9.8l2.4,3.1c0,0-14.4,20.8-24.9,17.7s-1.9-35.5-1.9-35.5L307.3,208.5z"/>
<polygon class="st3" points="289.6,124.9 293.3,141.5 284,142.9 285,130.2 "/>
<path class="st5" d="M284.7,133c1.2-0.4,2.2-1.1,2.9-2c0,0,0.1,3.1-3.2,6.4L284.7,133z"/>
<path class="st3" d="M280,124.8c0.1,2.9,0.6,5.7,1.4,8.5c0.5,1.3,2,2,3.4,1.5l0,0c2.2-0.7,3.7-2.6,3.9-4.8l1-4.7
	c0.2-2-0.8-3.8-2.6-4.7C284,118.9,279.8,121.7,280,124.8z"/>
<path class="st3" d="M286,128.6c0,0-0.2-2,1.3-2s1.8,2.8-0.2,3.3L286,128.6z"/>
<path class="st3" d="M280.3,128.1l-1.2,2.2c-0.2,0.4-0.1,0.9,0.3,1.1c0.1,0.1,0.2,0.1,0.4,0.1l2,0.1L280.3,128.1z"/>
<path class="st6" d="M284,142.8c0,0-22.6,8.5-16.5,24.1c4.4,11.3,10.4,9.2,11.9,18.2l1.6,8.8l23-6.9c0,0-2.7-12.9-1.2-21.5
	C304.2,157,308.8,135.6,284,142.8z"/>
<path class="st4" d="M290,147.9c0,0-8.8,12.3-1,24.8c1.3,2.1,2.5,4.4,3.6,6.6l4.9,9.8l6.5-1.9l-0.9-5.4L290,147.9z"/>
<path class="st7" d="M287.3,126.6c0,0-4,16,1.4,18.2s14.1,0.3,14.3-6.3c0.2-6.6-6.3-7.3-7.7-16.3c-1.3-9-18.6-5.9-18-0.7
	S287.3,126.6,287.3,126.6z"/>
<path class="st8" d="M304,187.1l-23,6.9l-4.3,27l30.8-0.4C307.5,220.6,315.4,200.3,304,187.1z"/>
<path class="st6" d="M272.9,262.2c0,0-2.1,2.4-4.6,2.1s-3.1,3.3,1,3.2c1.3,0,2.5-0.2,3.8-0.4c1.2-0.2,2.3-0.1,3.4,0.3
	c0.4,0.1,0.9,0,1.2-0.4c1.2-1.3-1.4-4.6-1.4-4.6L272.9,262.2z"/>
<path class="st6" d="M319.1,222c0,0,3.2,0.1,4.6,2.2c1.4,2.1,4.5,0.3,1.8-2.8c-0.8-1-1.8-1.9-2.8-2.6c-0.9-0.8-1.6-1.7-1.9-2.9
	c-0.2-0.4-0.6-0.7-1-0.7c-1.8-0.1-2.7,3.5-2.7,3.5L319.1,222z"/>
<path class="st6" d="M117.7,262.3c0,0,1.6,2.6,4.2,2.3c2.6-0.3,3.8,2,1.6,3.1c-2.1,1.1-8.6-0.5-8.6-0.5l-0.8-4.7L117.7,262.3z"/>
<path class="st3" d="M133.2,153.5c0,0,25.5-16.4,35.2-33.4l-3.2-3.6c0,0-22,19.4-41.2,22.8L133.2,153.5z"/>
<path class="st3" d="M168.4,120.2c0.1,0,2-2.5,2.1-2.7c0.8-1.1,1.3-2.4,1.4-3.7c-0.1-1.6-1.1-3-2.5-3.7c-0.6-0.4-1.5-0.3-2,0.1
	c-0.2,0.2-0.3,0.5-0.4,0.7c-0.2,0.6-0.4,1.2-0.5,1.8c-0.1-0.4-0.3-0.9-0.4-1.3c-0.1-0.2-0.2-0.4-0.4-0.4s-0.4,0.1-0.4,0.3
	c-0.1,0.2-0.1,0.3-0.1,0.5c-0.1,1-0.1,2-0.2,3c0,0.4,0.1,0.7,0.2,1.1c0,0.1,0,0.6,0.1,0.7L168.4,120.2z"/>
<path class="st6" d="M98.6,160.7c9.3,3.2,24.4,4.8,40.5-8l-4.3-18.5c0,0-25.9,3.6-38.6,14.2c-3,2.6-3.4,7.1-0.8,10.1
	C96.3,159.5,97.4,160.3,98.6,160.7z"/>
<path class="st9" d="M98.6,160.7c9.3,3.2,24.4,4.8,40.5-8l-4.3-18.5c0,0-25.9,3.6-38.6,14.2c-3,2.6-3.4,7.1-0.8,10.1
	C96.3,159.5,97.4,160.3,98.6,160.7z"/>
<path class="st3" d="M114.2,122.3c0.8,2.3,1.3,4.8,1.5,7.3c0,1.2-1,2.2-2.2,2.3c-1.9,0.1-3.8-0.9-4.7-2.6l-2.2-3.4
	c-0.8-1.5-0.5-3.4,0.6-4.6C109.2,118.8,113.5,119.7,114.2,122.3z"/>
<polygon class="st3" points="107,126.4 108.3,140.9 116.3,139.6 112.1,129.5 "/>
<path class="st7" d="M113.2,122.8c-1.3,0.3-2.7,0.6-4.1,0.7c1.1,1,1.5,2.6,1,4c-0.5,1.4-1.8,2.2-3.2,2c-0.2-0.6-0.4-1.3-0.5-2
	c-0.3-0.8-0.7-1.6-1.5-1.8c-0.5,0-1-0.1-1.6-0.2c-0.6-0.3-0.9-1-0.6-1.7l0.1-0.1c0.3-0.4,0.9-0.7,0.9-1.2s-0.5-0.7-0.8-1
	c-0.6-0.6-0.7-1.6-0.3-2.4c0.4-0.8,0.9-1.4,1.6-1.9c0.1-0.1,0.2-0.2,0.3-0.4c0-0.2-0.2-0.4-0.4-0.6c-0.3-0.5-0.3-1.1,0-1.6
	s0.8-0.8,1.3-1c1.4-0.6,2.9-0.9,4.4-1c0.7-0.1,1.4-0.1,2,0.2c0.6,0.2,1.1,0.9,1,1.6c-0.1,0.6-0.7,1.2-0.6,1.8
	c0.1,0.6,0.9,0.9,1.6,0.9c0.7-0.1,1.3,0,1.9,0.4c0.7,0.7,0.1,1.9-0.8,2.2c-0.2,0-0.3,0.1-0.5,0.2c-0.3,0.2-0.2,0.7,0.1,1
	c0.2,0.3,0.4,0.6,0.5,0.9c0.1,0.8-1.2,0.6-1.7,0.7L113.2,122.8z"/>
<path class="st3" d="M110.6,127.2c0,0-0.5-1.7-1.7-1.2s-0.6,2.8,1.2,2.6L110.6,127.2z"/>
<path class="st3" d="M115,125l1.6,1.4c0.3,0.3,0.3,0.7,0.1,1c-0.1,0.1-0.1,0.1-0.2,0.2l-1.6,0.7L115,125z"/>
<path class="st5" d="M113.1,131.7c-1,0-2.1-0.3-2.9-0.9c0.8,1.9,2.4,3.5,4.3,4.4L113.1,131.7z"/>
<path class="st6" d="M87.6,149.3c4.7-8.4,14.2-12.8,23.7-11l3.5,0.6c0,0,24.9,3.6,23.3,26.6c-1.1,14.2-6.2,27.8-14.5,39.3L90,201
	C90.1,200.9,77.4,168.2,87.6,149.3z"/>
<path class="st8" d="M118.8,262.6l4.9-57.9l-33.6-3.8L79,263.2h6.3l21-40.4c0.2-2.1,6.7,40.4,6.7,40.4L118.8,262.6z"/>
<path class="st10" d="M104.8,149.3c0,0,2.2,17.5-2,33.5s0,19.6,0,19.6L90.1,201c0,0-2.8-7.1-3.3-10.7S86.6,147.3,104.8,149.3z"/>
<path class="st6" d="M88.7,159.4c6.9,7,19.7,15.2,39.8,10.9l-2.6-22.3c0,0-17.8-4.6-33.9-0.7c-3.8,1-6.2,4.9-5.2,8.7
	C87.2,157.3,87.8,158.5,88.7,159.4z"/>
<path class="st9" d="M88.7,159.4c6.9,7,19.7,15.2,39.8,10.9l-2.6-22.3c0,0-17.8-4.6-33.9-0.7c-3.8,1-6.2,4.9-5.2,8.7
	C87.2,157.3,87.8,158.5,88.7,159.4z"/>
<path class="st3" d="M128.3,168.2c0,0,30.2-3.2,46.4-14.1l-1.3-4.6c0,0-28.3,7.6-47,1.9L128.3,168.2z"/>
<path class="st3" d="M174.7,154.1c1.4-0.6,2.8-1.3,4.2-2.2c0.9-0.6,1.7-1.5,2.1-2.5c0.3-1.3,0-2.7-0.7-3.8c-0.3-0.5-0.9-0.8-1.5-0.6
	c-0.3,0.1-0.6,0.3-0.8,0.6c-0.5,0.6-1.1,1.2-1.6,1.8c0-0.6-0.1-1.1-0.2-1.7c0-0.1-0.1-0.3-0.2-0.3c-0.1,0-0.1,0-0.2,0.1
	c-1.4,1-3.1,2.8-2.7,4.4C173.3,151.2,174.3,152.9,174.7,154.1z"/>
<path class="st6" d="M80,263.1c0,0-1.6,2.6-4.2,2.3c-2.6-0.3-3.8,2-1.6,3.1c2.1,1.1,8.6-0.5,8.6-0.5l0.8-4.7L80,263.1z"/>
<path class="st3" d="M298,145.7c3.6,1,5.7,4.8,4.7,8.4c-0.2,0.7-0.5,1.3-0.9,1.9c-2.7,4.2-8,9.9-17.8,14.2
	c-17.9,7.8-42.6-12.6-42.6-12.6s-6.1-1.9-5.4-5.3c0.7-3.4,7.5,1.7,7.5,1.7s12.4,9.3,26.9,4.8C282.2,155.1,289.1,143.2,298,145.7z"/>
<path class="st6" d="M158.6,89.5c2.4,4.6,8,6.4,12.6,4c0.1,0,0.2-0.1,0.3-0.1c9.7-5.4,25.8-12.4,31.2-24.1
	c7-15.1-23.7-34.9-23.7-34.9l-4.4,5.1c0,0,39.8,25.1-10.2,34.9C157.9,75.6,155.5,83.8,158.6,89.5L158.6,89.5z"/>
<path class="st9" d="M158.6,89.5c2.4,4.6,8,6.4,12.6,4c0.1,0,0.2-0.1,0.3-0.1c9.7-5.4,25.8-12.4,31.2-24.1
	c7-15.1-23.7-34.9-23.7-34.9l-4.4,5.1c0,0,39.8,25.1-10.2,34.9C157.9,75.6,155.5,83.8,158.6,89.5L158.6,89.5z"/>
<path class="st6" d="M247.5,95.9c0,0,2.2-1.4,1.9-3.5s1.7-3.2,2.6-1.4s-0.4,7.3-0.4,7.3l-3.9,0.7L247.5,95.9z"/>
<path class="st6" d="M250.6,141.7c0,0,2.4,0.9,4-0.6s3.6-0.6,2.7,1.3c-0.9,1.8-6.1,4-6.1,4l-2.9-2.8L250.6,141.7z"/>
<path class="st3" d="M140.9,70.8c2,1.4,3.8,3.2,5.3,5.1c0.7,1,0.4,2.4-0.6,3c-1.5,1.2-3.6,1.4-5.3,0.5l-3.8-1.6
	c-1.5-0.8-2.3-2.4-2-4.1C134.8,70.7,138.8,69.1,140.9,70.8z"/>
<polygon class="st3" points="137.2,78.1 146.4,89.2 152.1,83.7 143.1,77.8 "/>
<path class="st8" d="M140.3,71.7c-0.9,1.1-1.8,2-2.9,2.9c1.5,0.2,2.7,1.2,3,2.6c0.4,1.4-0.2,2.8-1.5,3.5l-4.2-3.8
	c-1.3-1.1-1.8-2.7-1.5-4.3c0.1-0.7,0.3-1.4,0.5-2c0.6-1.7,3-2.7,3.1-4.6c0-0.6,0.5-1,1-1c0.2,0,0.4,0.1,0.6,0.2
	c1.5,0.9,3.3,3,2.5,5.3C140.8,71,140.6,71.4,140.3,71.7z"/>
<path class="st3" d="M140.6,76.8c0,0-1.3-1.1-2-0.1s1.1,2.6,2.4,1.5L140.6,76.8z"/>
<path class="st3" d="M143,72.5l2,0.2c0.4,0,0.7,0.4,0.6,0.8c0,0.1,0,0.2-0.1,0.2l-0.9,1.5L143,72.5z"/>
<path class="st5" d="M145.1,79c-0.8,0.6-1.8,0.9-2.9,0.9c1.7,1.1,3.9,1.5,5.9,1.2L145.1,79z"/>
<path class="st6" d="M146.4,89.2l3.9-3.8c1-0.9,1.9-1.9,2.7-2.9c2.7-3.3,11.5-12.2,24.5-8c15.8,5.2,24.8,35.8,24.8,35.8l-18,20.7
	C184.3,131,121.8,119.4,146.4,89.2z"/>
<path class="st3" d="M175.4,38.5c0,0-7-3.1-7.5-6.1s5.4,1.6,5.4,1.6s2.8-5.3,5.7,0.4L175.4,38.5z"/>
<path class="st3" d="M173.8,34.9c0,0-4.8-5.1-3.2-6.1c1.5-1,5.2,4.8,5.2,4.8L173.8,34.9z"/>
<path class="st8" d="M184.3,131c0,0,13.3,11.1,21.2,0.8s9.3-34.3,42.2-32.1l-0.3-5.5c0,0-25.9-10.1-46.6,12.1L184.3,131z"/>
<path class="st8" d="M194.9,135.5c0,0,25.4-17.6,51.1,10l4.6-3.7c0,0-15.2-30.1-54.2-25.6L194.9,135.5z"/>
<path class="st10" d="M159.5,96.2c0,0,6,3,9.7,14.2s23.3,8.6,23.3,8.6l-8.2,12.1c0,0-20.2-4.3-31.1-11.3c-10.9-7,6-22.9,6-22.9
	L159.5,96.2z"/>
<path class="st6" d="M146.5,113.1c14.8,6.3,48.1,14.7,55.3-32l-6.6-2.6c0,0-13.2,31.3-39.1,17c-1-0.5-2-1-3-1.4
	c-4.6-1.8-16.1-5.3-15.9,5.5C137.4,105.5,141,110.8,146.5,113.1z"/>
<path class="st9" d="M146.5,113.1c14.8,6.3,48.1,14.7,55.3-32l-6.6-2.6c0,0-13.2,31.3-39.1,17c-1-0.5-2-1-3-1.4
	c-4.6-1.8-16.1-5.3-15.9,5.5C137.4,105.5,141,110.8,146.5,113.1z"/>
<path class="st3" d="M196.3,79c0.4-2.3,1.5-4.5,3-6.2c2.4-2.4,4.9-2,6.2-0.2c1.4,1.9-4.6,5-4.6,5l-0.1,3.2L196.3,79z"/>
<rect x="87.8" y="101.2" transform="matrix(0.862 -0.5069 0.5069 0.862 -39.1482 62.958)" class="st11" width="16.6" height="4.4"/>
<rect x="266.3" y="92.3" transform="matrix(0.9672 -0.2541 0.2541 0.9672 -14.9966 72.8736)" class="st11" width="16.6" height="4.4"/>
<rect x="231.9" y="61.9" transform="matrix(0.3077 -0.9515 0.9515 0.3077 97.1509 269.0576)" class="st11" width="3.2" height="11.8"/>
<rect x="266.7" y="66.3" transform="matrix(0.4272 -0.9042 0.9042 0.4272 94.815 285.3789)" class="st11" width="11.8" height="3.2"/>
<rect x="210.2" y="150.9" transform="matrix(0.4272 -0.9042 0.9042 0.4272 -14.1059 282.7386)" class="st11" width="11.8" height="3.2"/>
<rect x="308.5" y="73.1" transform="matrix(0.1369 -0.9906 0.9906 0.1369 189.4032 375.3291)" class="st11" width="3.2" height="11.8"/>
<rect x="119" y="77.6" transform="matrix(0.2686 -0.9633 0.9633 0.2686 7.7563 177.2774)" class="st11" width="3.2" height="11.8"/>
<rect x="152.9" y="56" transform="matrix(0.9799 -0.1997 0.1997 0.9799 -8.3032 32.8749)" class="st11" width="11.8" height="3.2"/>
<rect x="95.4" y="59.1" transform="matrix(0.9799 -0.1997 0.1997 0.9799 -10.0828 21.454)" class="st11" width="11.8" height="3.2"/>
</svg>
